<?xml version="1.0" encoding="utf-8"?>
<!-- Generator: Adobe Illustrator 27.6.1, SVG Export Plug-In . SVG Version: 6.00 Build 0)  -->
<svg version="1.1" id="Calque_1" xmlns="http://www.w3.org/2000/svg" xmlns:xlink="http://www.w3.org/1999/xlink" x="0px" y="0px"
	 viewBox="0 0 1700 1100" style="enable-background:new 0 0 1700 1100;" xml:space="preserve">
<style type="text/css">
	.st0{fill:#EAECE7;}
	.st1{clip-path:url(#SVGID_00000165931819840631922470000015671334055200208030_);}
	.st2{fill:#060708;}
	.st3{clip-path:url(#SVGID_00000070828793783430000790000016904018181039371954_);fill:#060708;}
	.st4{clip-path:url(#SVGID_00000070828793783430000790000016904018181039371954_);}
	.st5{clip-path:url(#SVGID_00000167396564283781493830000004607553014400222602_);}
	.st6{clip-path:url(#SVGID_00000167396564283781493830000004607553014400222602_);fill:#060708;}
	.st7{clip-path:url(#SVGID_00000127735101959090966410000000124240264905127056_);}
	.st8{clip-path:url(#SVGID_00000114752925144619931610000011504372787649380527_);}
	.st9{clip-path:url(#SVGID_00000072256095030271497430000009867155825713126569_);}
	.st10{clip-path:url(#SVGID_00000072256095030271497430000009867155825713126569_);fill:#060708;}
	.st11{clip-path:url(#SVGID_00000109031403512146145600000016112075544135279257_);}
	.st12{display:none;clip-path:url(#SVGID_00000109031403512146145600000016112075544135279257_);}
	.st13{clip-path:url(#SVGID_00000011714802809096815790000009454371070077207699_);fill:#060708;}
	.st14{clip-path:url(#SVGID_00000143602081906896106010000014674959699870044044_);}
	.st15{display:none;clip-path:url(#SVGID_00000143602081906896106010000014674959699870044044_);}
	.st16{clip-path:url(#SVGID_00000073685850308949011290000002020186581627128483_);}
	.st17{clip-path:url(#SVGID_00000052807531346335836040000004415317180425932934_);}
	.st18{display:none;clip-path:url(#SVGID_00000052807531346335836040000004415317180425932934_);fill:#060708;}
	.st19{display:none;clip-path:url(#SVGID_00000007393951135099233390000002459573783922854534_);}
	.st20{clip-path:url(#SVGID_00000007393951135099233390000002459573783922854534_);}
</style>
<rect y="3" class="st0" width="1700" height="1100"/>
<g>
	<defs>
		<rect id="SVGID_00000180364545952146358460000002456552919994751132_" x="-9" y="-4" width="1718" height="1108"/>
	</defs>
	<clipPath id="SVGID_00000056414375338411465520000003461351979049295018_">
		<use xlink:href="#SVGID_00000180364545952146358460000002456552919994751132_"  style="overflow:visible;"/>
	</clipPath>
	<path style="clip-path:url(#SVGID_00000056414375338411465520000003461351979049295018_);" d="M331.1,76.2c0-1.1,0.5-3.3,2.8-4.1
		c2-0.7,5.5-1.5,6.2-1.6v5.7c0,3.1-2.5,4.1-4.8,4.1C332.3,80.3,331.1,79.1,331.1,76.2 M340.1,65.5v0.9c-5.2,0.6-17,2-20.6,3.1
		c-4.8,1.5-7.2,4.1-7.2,8.6c0,7.9,7.5,11.7,15.4,11.7c6,0,10.4-2.2,12.5-5.8c0.2,1.8,1,3.6,1.7,4.7h19.7c-3.2-4.9-3.3-8.8-3.3-11.5
		V65.9c0-9.6-7.2-12.2-12.9-12.2h-30v9.5H337C338.6,63.2,340.1,63.4,340.1,65.5 M288.8,88.7H307V39h-18.2V88.7z M263.8,88.7H282V39
		h-18.2V88.7z M212.7,39v49.7h44.8V76.9h-25.8v-7.1h20.8V58.1h-20.8v-7.4h25.8V39H212.7z M153,68.3l9-14.3v14.3H153z M181.1,39
		h-22.9l-18,29v12.1H162v8.6h19v-8.6h6.5V68.3h-6.5V39z M102,68.3l9-14.3v14.3H102z M130.1,39h-22.9l-18,29v12.1H111v8.6h19v-8.6
		h6.5V68.3h-6.5V39z M51,68.3l9-14.3v14.3H51z M79.1,39H56.2l-18,29v12.1H60v8.6h19v-8.6h6.5V68.3h-6.5V39z"/>
	<path style="display:none;clip-path:url(#SVGID_00000056414375338411465520000003461351979049295018_);" d="M293.9,1055l4,11.2
		l-1.8,5.3h1.7l5.7-16.6h-1.9l-2.8,8.4l-2.9-8.4H293.9z M291.9,1056.7v-1.9c-1.3,0-2.1,0.3-2.7,1.4v-1.2h-1.7v12h1.8v-7.8
		C289.3,1057.7,290.1,1056.7,291.9,1056.7 M274.7,1061c0,3.6,1.8,6.3,4.8,6.3c1,0,2.3-0.3,3.1-1.5v1.2h1.7v-17.3h-1.7v6.5
		c-0.9-1.2-2.2-1.5-3.1-1.5C276.5,1054.7,274.7,1057.4,274.7,1061 M282.6,1061c0,3.3-1.4,4.6-3,4.6c-2.1,0-3-2.1-3-4.6
		s0.9-4.6,3-4.6C281.3,1056.4,282.6,1057.7,282.6,1061 M268.1,1067.3c2.4,0,3.9-1.7,3.9-3.9v-8.4h-1.8v8.3c0,1.3-0.8,2.3-2.1,2.3
		c-1.4,0-2.2-1-2.2-2.3v-8.3h-1.8v8.4C264.2,1065.6,265.8,1067.3,268.1,1067.3 M251.5,1061c0,3.6,1.8,6.3,4.8,6.3
		c1,0,2.3-0.3,3.1-1.5v1.2h1.7v-12h-1.7v1.2c-0.9-1.2-2.2-1.5-3.1-1.5C253.4,1054.7,251.5,1057.4,251.5,1061 M259.5,1061
		c0,3.3-1.4,4.6-3,4.6c-2.1,0-3-2.1-3-4.6s0.9-4.6,3-4.6C258.1,1056.4,259.5,1057.7,259.5,1061 M235.5,1050.1v16.9h1.9v-12.3l4,12.3
		h1.9l4-12.4v12.4h1.9v-16.9h-2.2l-4.5,14.1l-4.5-14.1H235.5z M221.6,1055h-1.7v12h1.8v-8c0-1.4,0.8-2.5,2.3-2.5c1.3,0,2,0.9,2,2.2
		v8.3h1.8v-8.6c0-2.3-1.5-3.7-3.4-3.7c-1.1,0-2.3,0.6-2.8,1.5V1055z M214.6,1051.1c0,0.8,0.6,1.3,1.4,1.3c0.8,0,1.4-0.6,1.4-1.3
		c0-0.8-0.6-1.3-1.4-1.3C215.2,1049.8,214.6,1050.3,214.6,1051.1 M216.8,1055H215v12h1.8V1055z M206,1055h-1.7v12h1.8v-8
		c0-1.4,0.8-2.5,2.3-2.5c1.3,0,2,0.9,2,2.2v8.3h1.8v-8.6c0-2.3-1.5-3.7-3.4-3.7c-1.1,0-2.3,0.6-2.8,1.5V1055z M193.8,1061
		c0-2.4,1-4.6,3-4.6c2,0,3.1,2.1,3.1,4.6c0,2.5-1,4.6-3,4.6C194.8,1065.6,193.8,1063.5,193.8,1061 M196.8,1054.7
		c-3.1,0-4.9,2.8-4.9,6.3c0,3.5,1.9,6.3,4.9,6.3c3.1,0,4.9-2.8,4.9-6.3C201.7,1057.5,199.9,1054.7,196.8,1054.7 M186.6,1051.5v3.5
		h-1.7v1.7h1.7v10.3h1.8v-10.3h2.1v-1.7h-2.1v-3.5H186.6z M176.4,1055h-1.7v12h1.8v-8c0-1.4,0.8-2.5,2.3-2.5c1.3,0,2,0.9,2,2.2v8.3
		h1.8v-8.6c0-2.3-1.5-3.7-3.4-3.7c-1.1,0-2.3,0.6-2.8,1.5V1055z M164.1,1060.5l2.1-7.6l2.3,7.6H164.1z M165.3,1050.1l-4.8,16.9h1.9
		l1.3-4.7h5.4l1.4,4.7h2l-5.1-16.9H165.3z M151.4,1064.7l-1.5,5.3h1.4l2.5-5.3H151.4z M142.5,1055h-1.7v12h1.8v-8
		c0-1.4,0.8-2.5,2.3-2.5c1.3,0,2,0.9,2,2.2v8.3h1.8v-8.6c0-2.3-1.5-3.7-3.4-3.7c-1.1,0-2.3,0.6-2.8,1.5V1055z M129.8,1061
		c0-2.5,0.9-4.6,3-4.6c1.7,0,3,1.3,3,4.6c0,3-1.4,4.2-3,4.2C130.8,1065.2,129.8,1063.2,129.8,1061 M137.5,1055h-1.7v1.2
		c-0.9-1.2-2.2-1.5-3.1-1.5c-2.9,0-4.8,2.8-4.8,6.3c0,3.2,1.9,6,4.8,6c1,0,2.1-0.3,3-1.5v1.3c0,2-0.8,3.4-2.7,3.4
		c-1.5,0-2.3-0.4-2.9-2l-1.7,0.6c0.6,2,2,3.1,4.6,3.1c2.9,0,4.5-2.1,4.5-5.1V1055z M123.1,1051.1c0,0.8,0.6,1.3,1.4,1.3
		c0.8,0,1.4-0.6,1.4-1.3c0-0.8-0.6-1.3-1.4-1.3C123.8,1049.8,123.1,1050.3,123.1,1051.1 M125.4,1055h-1.8v12h1.8V1055z M115,1064
		l-1.7,0.7c0.6,1.5,2.2,2.5,3.8,2.5c1.9,0,3.9-1.2,3.9-3.6c0-2-1.2-2.9-2.3-3.3c-0.6-0.3-1.4-0.6-2.1-0.8c-0.5-0.2-1.1-0.5-1.1-1.5
		c0-1,0.6-1.7,1.8-1.7c0.8,0,1.5,0.4,1.9,1.2l1.6-0.7c-0.7-1.6-1.9-2.3-3.4-2.3c-2.1,0-3.6,1.5-3.6,3.5c0,1.7,1.3,2.6,1.9,2.9
		c0.8,0.4,1.8,0.7,2.4,1c0.6,0.3,1.3,0.8,1.3,1.6c0,1.2-0.8,1.8-2,1.8C116.1,1065.5,115.3,1064.6,115,1064 M103.7,1059.8
		c0.3-1.9,1.2-3.4,2.9-3.4c1.5,0,2.7,1.3,2.9,3.4H103.7z M103.7,1061.4h7.7c0.2-3.8-1.5-6.7-4.8-6.7c-2.9,0-4.9,2.8-4.9,6.3
		c0,3.5,1.8,6.3,5.2,6.3c1.8,0,3.4-1,4.2-2.9l-1.7-0.6c-0.6,1.3-1.4,1.8-2.6,1.8C104.7,1065.6,103.8,1063.7,103.7,1061.4 M91,1065.2
		v-13.4h2.2c3.2,0,4.8,2.4,4.8,6.3c0,3.8-1.6,7.1-4.8,7.1H91z M93.2,1050.1h-4.1v16.9h4.1c4.6,0,6.8-4,6.8-8.8
		C100,1053.2,97.7,1050.1,93.2,1050.1 M74,1059.8c0.3-1.9,1.2-3.4,2.9-3.4c1.5,0,2.7,1.3,2.9,3.4H74z M73.9,1061.4h7.7
		c0.2-3.8-1.5-6.7-4.8-6.7c-2.9,0-4.9,2.8-4.9,6.3c0,3.5,1.8,6.3,5.2,6.3c1.8,0,3.4-1,4.2-2.9l-1.7-0.6c-0.6,1.3-1.4,1.8-2.6,1.8
		C75,1065.6,74,1063.7,73.9,1061.4 M60.2,1071.6h1.7v-5.8c0.9,1.2,2.2,1.5,3.1,1.5c2.9,0,4.8-2.7,4.8-6.3s-1.8-6.3-4.8-6.3
		c-1,0-2.3,0.3-3.1,1.5v-1.2h-1.7V1071.6z M61.9,1061c0-3.3,1.4-4.6,3-4.6c2.1,0,3,2.1,3,4.6s-0.9,4.6-3,4.6
		C63.3,1065.6,61.9,1064.3,61.9,1061 M48,1055l4,11.2l-1.8,5.3H52l5.7-16.6h-1.9l-2.8,8.4l-2.9-8.4H48z M47.1,1050.1H37.1v1.8h4.1
		v15.1h1.9v-15.1h4.1V1050.1z"/>
	<path style="display:none;clip-path:url(#SVGID_00000056414375338411465520000003461351979049295018_);" d="M1660.7,1049.7
		c-0.1,1.9-2,2.4-2.6,2.4v1.3h2.5v13.5h1.9v-17.3H1660.7z M1653.3,1060.7c1.8-2.3,3-4.1,3-6.2c0-3.3-2.5-4.7-4.8-4.7
		c-1.9,0-4.1,1-4.5,3.9l1.9,0.4c0.3-1.8,1.3-2.4,2.6-2.4c1.5,0,2.8,0.9,2.8,2.9c0,1.8-1,3.3-2.5,5.2l-4.5,5.7v1.5h9.2v-1.8h-6.6
		L1653.3,1060.7z M1635.8,1058.5c0-3.5,0.8-6.8,3.5-6.8s3.5,3.4,3.5,6.8c0,3.5-0.8,6.9-3.5,6.9S1635.8,1062,1635.8,1058.5
		 M1639.3,1067.3c4,0,5.5-4.2,5.5-8.8c0-4.5-1.5-8.7-5.5-8.7s-5.5,4.2-5.5,8.7C1633.8,1063.1,1635.3,1067.3,1639.3,1067.3
		 M1628.5,1060.7c1.8-2.3,3-4.1,3-6.2c0-3.3-2.5-4.7-4.8-4.7c-1.9,0-4.1,1-4.5,3.9l1.9,0.4c0.3-1.8,1.3-2.4,2.6-2.4
		c1.5,0,2.8,0.9,2.8,2.9c0,1.8-1,3.3-2.5,5.2l-4.5,5.7v1.5h9.2v-1.8h-6.6L1628.5,1060.7z M1612.9,1064.7l-1.5,5.3h1.4l2.5-5.3
		H1612.9z M1610.6,1056.7v-1.9c-1.3,0-2.1,0.3-2.7,1.4v-1.2h-1.7v12h1.8v-7.8C1608,1057.7,1608.8,1056.7,1610.6,1056.7
		 M1596.1,1059.8c0.3-1.9,1.2-3.4,2.9-3.4c1.5,0,2.7,1.3,2.9,3.4H1596.1z M1596.1,1061.4h7.7c0.2-3.8-1.5-6.7-4.8-6.7
		c-2.9,0-4.9,2.8-4.9,6.3c0,3.5,1.8,6.3,5.2,6.3c1.8,0,3.4-1,4.2-2.9l-1.7-0.6c-0.6,1.3-1.4,1.8-2.6,1.8
		C1597.1,1065.6,1596.2,1063.7,1596.1,1061.4 M1582.6,1067h1.7v-1.2c0.9,1.2,2.2,1.5,3.1,1.5c2.9,0,4.8-2.7,4.8-6.3
		s-1.8-6.3-4.8-6.3c-1,0-2.3,0.3-3.1,1.5v-6.5h-1.7V1067z M1584.3,1061c0-3.3,1.4-4.6,3-4.6c2.1,0,3,2.1,3,4.6s-0.9,4.6-3,4.6
		C1585.7,1065.6,1584.3,1064.3,1584.3,1061 M1575.6,1067.3c2.4,0,3.9-1.7,3.9-3.9v-8.4h-1.8v8.3c0,1.3-0.8,2.3-2.1,2.3
		c-1.4,0-2.2-1-2.2-2.3v-8.3h-1.8v8.4C1571.6,1065.6,1573.2,1067.3,1575.6,1067.3 M1558.1,1050.1v16.9h1.9v-7.7h6.6v7.7h1.9v-16.9
		h-1.9v7.4h-6.6v-7.4H1558.1z M1546.7,1051.5v3.5h-1.7v1.7h1.7v10.3h1.8v-10.3h2.1v-1.7h-2.1v-3.5H1546.7z M1543.3,1056.7v-1.9
		c-1.3,0-2.1,0.3-2.7,1.4v-1.2h-1.7v12h1.8v-7.8C1540.6,1057.7,1541.4,1056.7,1543.3,1056.7 M1528.7,1059.8c0.3-1.9,1.2-3.4,2.9-3.4
		c1.5,0,2.7,1.3,2.9,3.4H1528.7z M1528.7,1061.4h7.7c0.2-3.8-1.5-6.7-4.8-6.7c-2.9,0-4.9,2.8-4.9,6.3c0,3.5,1.8,6.3,5.2,6.3
		c1.8,0,3.4-1,4.2-2.9l-1.7-0.6c-0.6,1.3-1.4,1.8-2.6,1.8C1529.7,1065.6,1528.8,1063.7,1528.7,1061.4 M1515.2,1067h1.7v-1.2
		c0.9,1.2,2.2,1.5,3.1,1.5c2.9,0,4.8-2.7,4.8-6.3s-1.8-6.3-4.8-6.3c-1,0-2.3,0.3-3.1,1.5v-6.5h-1.7V1067z M1516.9,1061
		c0-3.3,1.4-4.6,3-4.6c2.1,0,3,2.1,3,4.6s-0.9,4.6-3,4.6C1518.3,1065.6,1516.9,1064.3,1516.9,1061 M1504.5,1061c0-2.4,1-4.6,3-4.6
		c2,0,3.1,2.1,3.1,4.6c0,2.5-1,4.6-3,4.6C1505.5,1065.6,1504.5,1063.5,1504.5,1061 M1507.6,1054.7c-3.1,0-4.9,2.8-4.9,6.3
		c0,3.5,1.9,6.3,4.9,6.3c3.1,0,4.9-2.8,4.9-6.3C1512.5,1057.5,1510.6,1054.7,1507.6,1054.7 M1493.2,1058.2v-6.3h2.8
		c2.2,0,3.1,1.5,3.1,3.1s-0.9,3.2-3.1,3.2H1493.2z M1496.1,1050.1h-4.8v16.9h1.9v-7.2h0.8l4.9,7.2h2.3l-5-7.2
		c3.1-0.1,4.8-2.2,4.8-4.8C1501.2,1052.3,1499.3,1050.1,1496.1,1050.1 M1484.1,1056.7v-1.9c-1.3,0-2.1,0.3-2.7,1.4v-1.2h-1.7v12h1.8
		v-7.8C1481.4,1057.7,1482.2,1056.7,1484.1,1056.7 M1466.8,1061c0,3.6,1.8,6.3,4.8,6.3c1,0,2.3-0.3,3.1-1.5v1.2h1.7v-12h-1.7v1.2
		c-0.9-1.2-2.2-1.5-3.1-1.5C1468.7,1054.7,1466.8,1057.4,1466.8,1061 M1474.8,1061c0,3.3-1.4,4.6-3,4.6c-2.1,0-3-2.1-3-4.6
		s0.9-4.6,3-4.6C1473.4,1056.4,1474.8,1057.7,1474.8,1061 M1455,1071.6h1.7v-5.8c0.9,1.2,2.2,1.5,3.1,1.5c2.9,0,4.8-2.7,4.8-6.3
		s-1.8-6.3-4.8-6.3c-1,0-2.3,0.3-3.1,1.5v-1.2h-1.7V1071.6z M1456.7,1061c0-3.3,1.4-4.6,3-4.6c2.1,0,3,2.1,3,4.6s-0.9,4.6-3,4.6
		C1458.1,1065.6,1456.7,1064.3,1456.7,1061 M1441.8,1053.2l1.8-2.9h2.4l-2.5,2.9H1441.8z M1439.8,1059.8c0.3-1.9,1.2-3.4,2.9-3.4
		c1.5,0,2.7,1.3,2.9,3.4H1439.8z M1439.8,1061.4h7.7c0.2-3.8-1.5-6.7-4.8-6.7c-2.9,0-4.9,2.8-4.9,6.3c0,3.5,1.8,6.3,5.2,6.3
		c1.8,0,3.4-1,4.2-2.9l-1.7-0.6c-0.6,1.3-1.4,1.8-2.6,1.8C1440.8,1065.6,1439.9,1063.7,1439.8,1061.4 M1429.8,1064l-1.7,0.7
		c0.6,1.5,2.2,2.5,3.8,2.5c1.9,0,3.9-1.2,3.9-3.6c0-2-1.2-2.9-2.3-3.3c-0.6-0.3-1.4-0.6-2.1-0.8c-0.5-0.2-1.1-0.5-1.1-1.5
		c0-1,0.6-1.7,1.8-1.7c0.8,0,1.5,0.4,1.9,1.2l1.6-0.7c-0.7-1.6-1.9-2.3-3.4-2.3c-2.1,0-3.6,1.5-3.6,3.5c0,1.7,1.3,2.6,1.9,2.9
		c0.8,0.4,1.8,0.7,2.4,1c0.6,0.3,1.3,0.8,1.3,1.6c0,1.2-0.8,1.8-2,1.8C1430.9,1065.5,1430.1,1064.6,1429.8,1064 M1423.5,1051.1
		c0,0.8,0.6,1.3,1.4,1.3c0.8,0,1.4-0.6,1.4-1.3c0-0.8-0.6-1.3-1.4-1.3C1424.1,1049.8,1423.5,1050.3,1423.5,1051.1 M1425.8,1055h-1.8
		v12h1.8V1055z M1412.3,1055l3.8,12h1.8l3.8-12h-1.9l-2.4,7.9c-0.1,0.4-0.2,0.7-0.3,1.1c-0.1-0.4-0.2-0.7-0.3-1.1l-2.4-7.9H1412.3z
		 M1410.3,1056.7v-1.9c-1.3,0-2.1,0.3-2.7,1.4v-1.2h-1.7v12h1.8v-7.8C1407.7,1057.7,1408.5,1056.7,1410.3,1056.7 M1395.8,1059.8
		c0.3-1.9,1.2-3.4,2.9-3.4c1.5,0,2.7,1.3,2.9,3.4H1395.8z M1395.7,1061.4h7.7c0.2-3.8-1.5-6.7-4.8-6.7c-2.9,0-4.9,2.8-4.9,6.3
		c0,3.5,1.8,6.3,5.2,6.3c1.8,0,3.4-1,4.2-2.9l-1.7-0.6c-0.6,1.3-1.4,1.8-2.6,1.8C1396.8,1065.6,1395.9,1063.7,1395.7,1061.4
		 M1382.1,1071.6h1.7v-5.8c0.9,1.2,2.2,1.5,3.1,1.5c2.9,0,4.8-2.7,4.8-6.3s-1.8-6.3-4.8-6.3c-1,0-2.3,0.3-3.1,1.5v-1.2h-1.7V1071.6z
		 M1383.7,1061c0-3.3,1.4-4.6,3-4.6c2.1,0,3,2.1,3,4.6s-0.9,4.6-3,4.6C1385.1,1065.6,1383.7,1064.3,1383.7,1061 M1375,1067.3
		c2.4,0,3.9-1.7,3.9-3.9v-8.4h-1.8v8.3c0,1.3-0.8,2.3-2.1,2.3c-1.4,0-2.2-1-2.2-2.3v-8.3h-1.8v8.4
		C1371.1,1065.6,1372.7,1067.3,1375,1067.3 M1362.5,1064l-1.7,0.7c0.6,1.5,2.2,2.5,3.8,2.5c1.9,0,3.9-1.2,3.9-3.6
		c0-2-1.2-2.9-2.3-3.3c-0.6-0.3-1.4-0.6-2.1-0.8c-0.5-0.2-1.1-0.5-1.1-1.5c0-1,0.6-1.7,1.8-1.7c0.8,0,1.5,0.4,1.9,1.2l1.6-0.7
		c-0.7-1.6-1.9-2.3-3.4-2.3c-2.1,0-3.6,1.5-3.6,3.5c0,1.7,1.3,2.6,1.9,2.9c0.8,0.4,1.8,0.7,2.4,1c0.6,0.3,1.3,0.8,1.3,1.6
		c0,1.2-0.8,1.8-2,1.8C1363.5,1065.5,1362.7,1064.6,1362.5,1064 M1351.8,1064.7l-1.5,5.3h1.4l2.5-5.3H1351.8z M1340.5,1050.1v16.9
		h8.7v-1.8h-6.8v-15.1H1340.5z M1330.1,1060.5l2.1-7.6l2.3,7.6H1330.1z M1331.3,1050.1l-4.8,16.9h1.9l1.3-4.7h5.4l1.4,4.7h2
		l-5.1-16.9H1331.3z M1318.7,1051.6c1.2,0,2.7,0.5,3.6,2.5l1.8-0.8c-1.3-3-3.7-3.6-5.3-3.6c-4.4,0-6.4,4-6.4,8.8
		c0,4.7,1.7,8.7,6.4,8.7c2.4,0,4.2-1.1,5.5-4.2l-1.8-0.7c-1,2.4-2.3,3-3.6,3c-3.3,0-4.4-3.3-4.4-6.9
		C1314.4,1055.1,1315.4,1051.6,1318.7,1051.6 M1302.3,1050.1v16.9h8.4v-1.8h-6.6v-6h5.1v-1.8h-5.1v-5.6h6.6v-1.8H1302.3z"/>
</g>
<g>
	<defs>
		<rect id="SVGID_00000024692261344103620980000007717944356646167462_" x="-9" y="-4" width="1718" height="1108"/>
	</defs>
	<clipPath id="SVGID_00000124853496916644143180000008347673564555614120_">
		<use xlink:href="#SVGID_00000024692261344103620980000007717944356646167462_"  style="overflow:visible;"/>
	</clipPath>
	<path style="clip-path:url(#SVGID_00000124853496916644143180000008347673564555614120_);fill:#060708;" d="M731.2,702.8
		c0-2.8,0.8-4.5,5-4.5h5.2v9.2h-5.2C732.1,707.5,731.2,705.5,731.2,702.8 M737.1,680.5h4.4v-11.3h-9.3c-11,0-19,3-19,13.2
		c0,6.9,4.9,9.9,9.7,10.8v0.3c-4.8,0.7-11.3,3-11.3,11.8c0,9.1,8.3,13.6,17,13.6h32v-20.6h4v-9h-4v-4.3h-19v4.3h-4.3
		c-4.3,0-5.4-1.5-5.4-4.3C731.8,681.9,732.9,680.5,737.1,680.5 M663.8,701c0-5.2,1.5-7.8,4-7.8c3.1,0,4.4,4,4.4,7.8
		c0,3.7-1.3,7.7-4.4,7.7C665.3,708.7,663.8,706.2,663.8,701 M647.8,701.1c0,8.7,4.8,15.8,14.3,15.8c4.1,0,8.2-1.8,10.8-6h0.2
		c1.5,3.7,5.7,6.8,12.9,6.8c14.8,0,18.8-9.2,18.8-20c0-17.2-14.3-29.8-35.5-29.8c-21.3,0-35.6,13.7-35.6,32.8
		c0,19.3,15.8,33.1,35,33.1c9,0,17.6-1.8,21.8-4.4v-7.1c-6,3.3-11.3,4.4-21.8,4.4c-14.8,0-27.2-10.2-27.2-26.4
		c0-14.4,10.4-25.3,27.5-25.3c17.6,0,28.1,9.2,28.1,22.8c0,7.5-2.9,12.4-6.5,12.4c-3.6,0-3.8-3.4-3.8-7.1v-17h-15.2v3.8
		c-2.1-3-5.8-4.8-9.9-4.8C652.9,685,647.8,692.4,647.8,701.1 M597.8,678l-9,9l9.8,9.8l-9.8,9.8l9,9l9.8-9.8l9.8,9.8l9-9l-9.8-9.8
		l9.8-9.8l-9-9l-9.8,9.8L597.8,678z M570,678h-13.2v13h-13v13.2h13v13H570v-13h13v-13.2h-13V678z M486.2,704.6h48.5v-12.7h-48.5
		V704.6z M442.8,704.6h32.8v-12.7h-32.8V704.6z M396.3,729.5h38.5v-10.6h-38.5V729.5z M379.6,669.1h18.6l-18.8,49.7h-18.6
		L379.6,669.1z M318.1,685.6c2-1.2,6.9-3.4,13.1-3.4c5.5,0,7.1,1.5,7.1,4.1c0,4.6-11.3,1.8-11.3,15.1h17.4c0-8.5,14.8-4.2,14.8-17.3
		c0-9.5-9.5-16-22.3-16c-9.9,0-15.8,2.5-18.7,4.1V685.6z M326.9,718.8h17.6v-14.1h-17.6V718.8z M281.7,707.6h17.6v-14.1h-17.6V707.6
		z M253.7,707.6h17.6v-14.1h-17.6V707.6z M224.9,669.1l1.5,32.5h15.3l1.5-32.5H224.9z M225.3,718.8h17.6v-14.1h-17.6V718.8z
		 M196.7,697.9h17.6v-14.1h-17.6V697.9z M196.8,704.8v14.1h9.7l-4.3,13.8h8.3l3.9-14.9v-12.9H196.8z M168.7,697.9h17.6v-14.1h-17.6
		V697.9z M168.7,718.8h17.6v-14.1h-17.6V718.8z M140.8,704.8v14.1h9l-4.4,13.8h9.1l3.8-14.9v-12.9H140.8z M112.8,718.8h17.6v-14.1
		h-17.6V718.8z"/>
	<path style="clip-path:url(#SVGID_00000124853496916644143180000008347673564555614120_);fill:#060708;" d="M746.3,629.8
		c0-12.5-3.7-24.1-11-31.7h-16.8c4.8,4.9,12.2,16.2,12.2,31.7c0,15.6-7.5,26.9-12.2,31.8h16.8C742.6,654,746.3,642.4,746.3,629.8
		 M715.5,622.9c0-10.2-2.9-19.7-8.5-25.8h-15.9c3.7,4,9.6,13.2,9.6,25.8c0,12.7-5.9,22-9.6,26H707
		C712.7,642.7,715.5,633.2,715.5,622.9 M658.4,622.9c0,10.3,2.9,19.8,8.5,26h15.9c-3.7-4-9.6-13.2-9.6-26c0-12.6,5.9-21.8,9.6-25.8
		H667C661.3,603.2,658.4,612.7,658.4,622.9 M627,629.8c0,12.5,3.7,24.2,11,31.8h16.8c-4.8-4.9-12.2-16.2-12.2-31.8
		c0-15.5,7.5-26.8,12.2-31.7h-16.8C630.7,605.8,627,617.4,627,629.8 M571.4,615.4c0,10.9,6.9,16.3,18.5,16.3
		c6.4,0,10.9-2.5,12.5-5.5l0.3,0.1c-0.2,4.4-3.4,9.3-11.9,9.9c-6.7,0.5-12.7-1.6-17.2-4.8V645c3.3,1.8,9.8,3.9,18.4,3.9
		c15,0,26.2-9.9,26.2-27.3c0-19.7-12.6-24.6-24.8-24.6C579.6,597.1,571.4,605.4,571.4,615.4 M598.6,614.9c0,4.5-0.4,8.8-4.6,8.8
		s-4.7-4.3-4.7-8.8c0-4.6,0.6-8.8,4.7-8.8S598.6,610.4,598.6,614.9 M537.5,611.6c0,3.2,0.3,6.6,3.6,6.6c3.3,0,3.6-3.4,3.6-6.6
		c0-3.3-0.3-6.4-3.6-6.4C537.9,605.1,537.5,608.3,537.5,611.6 M537.5,633.9c0,3.4,0.3,7.1,3.6,7.1c3.3,0,3.6-3.7,3.6-7.1
		c0-3.6-0.3-6.9-3.6-6.9C537.9,627,537.5,630.3,537.5,633.9 M541.2,597c13.4,0,22,5,22,14.2c0,4.3-1.3,8.1-7.9,10.8v0.2
		c6.6,1.9,9.2,6.9,9.2,11.5c0,9.5-9.2,15.3-23.3,15.3c-14.1,0-23.3-5.7-23.3-15.3c0-4.6,2.7-9.6,9.2-11.5V622
		c-6.6-2.7-7.9-6.4-7.9-10.8C519.2,602.1,527.8,597,541.2,597 M512.5,609.2v-11.1h-40.9v11.8h23c-8.9,9.9-16.2,24.2-18.1,37.9h18.7
		C495.9,633.1,503.4,619.1,512.5,609.2 M419,624.4c0,19.7,12.6,24.6,24.8,24.6c14,0,22.1-8.3,22.1-18.3c0-10.9-6.9-16.3-18.6-16.3
		c-6.4,0-10.9,2.4-12.5,5.5l-0.3-0.1c0.2-4.4,3.4-9.3,11.9-9.9c6.7-0.5,12.7,1.6,17.1,4.8V601c-3.3-1.8-9.8-3.9-18.4-3.9
		C430.2,597.1,419,607,419,624.4 M438.8,631.1c0-4.5,0.4-8.8,4.5-8.8s4.7,4.3,4.7,8.8s-0.6,8.8-4.7,8.8S438.8,635.7,438.8,631.1
		 M393.4,614.8c-2.7,0-4.6,0.2-4.6,0.2v-5.1h21.6v-11.8h-40.6v28.8c3.1-0.9,8.3-1.8,13.7-1.8c5.9,0,9.7,0.9,9.7,4.5
		c0,3.9-4,5.2-9.4,5.2c-6.4,0-12-2.2-14.1-3.2V645c2.9,1.5,10.5,4.1,20.7,4.1c12.1,0,21.8-6.2,21.8-17.5
		C412.3,618.8,402.3,614.8,393.4,614.8 M326.7,627.5l9-14.3v14.3H326.7z M354.8,598.1h-22.9l-18,29v12.1h21.8v8.6h19v-8.6h6.5v-11.8
		h-6.5V598.1z M288.7,629.6c0,3.9-4,5.2-9.4,5.2c-6.4,0-12-2.2-14.1-3.2V645c2.9,1.5,10.5,4.1,20.7,4.1c12.1,0,21.8-6.2,21.8-17.5
		c0-9.8-5.9-14.4-12.7-16l10.1-6.9v-10.5h-39.2v11.8h21.9l-11.6,8.5v6.9h3.4C285.4,625.4,288.7,626.1,288.7,629.6 M216.6,640.9v6.9
		h40.4v-11.8h-20c6.3-4.8,20.6-9.1,20.6-23.1c0-10.1-9.1-16-22-16c-9.9,0-15.8,2.5-18.7,4.1v13.5c2-1.2,6.9-3.4,12.9-3.4
		c5.7,0,9,1.6,9,5.9C238.7,625.3,217.3,629.4,216.6,640.9 M207.2,598.1h-26.7v11.8h7.6v37.9h19V598.1z M145.5,622.8
		c0-10.2,1.3-14.9,5.1-14.9c3.9,0,5.1,4.7,5.1,14.9c0,10.2-1.3,15.2-5.1,15.2C146.8,638,145.5,633.1,145.5,622.8 M125.7,622.8
		c0,15.7,10.8,26.1,25,26.1c14.2,0,25-10.4,25-26.1s-10.8-25.8-25-25.8C136.4,597,125.7,607.2,125.7,622.8"/>
	<path style="clip-path:url(#SVGID_00000124853496916644143180000008347673564555614120_);fill:#060708;" d="M696.9,567.3l18.5-16.2
		v-9.2h-39.7v9.5h17.6l-18.1,16.2v9.2h40.2v-9.5H696.9z M630.7,590.6h10.4c2.9,0,9.2-0.8,11.9-7.6l16.6-41.2h-17.3l-5.1,21.3
		l-4.5-21.3h-19l15.2,35.3c1.3,3-1.4,4.2-2.9,4.2h-5.2V590.6z M569.4,576.8l14.1-17l-14.5-18h20.3l5.7,8l6.2-8h17.4L604,559.1
		l14.4,17.8h-20.6l-5.2-8l-5.8,8H569.4z M522.5,541.8h14.8l4.8,20.9l4.8-20.9h16.6l-9,35h-20.6l-4.3-17.8l-4.3,17.8h-20l-9.4-35
		h18.1l4.5,19.5L522.5,541.8z M442.1,541.8h17.6l6.6,20.2l6.7-20.2h17.5l-13.2,35h-20.8L442.1,541.8z M417.9,576.8v-4.3
		c-2,3-4.9,5.4-11.9,5.4c-9,0-13.5-4.7-13.5-12.2v-23.9h18.2v20.9c0,2.7,0.1,5,3.1,5c3.4,0,4.1-2.3,4.1-5.7v-20.2h18.2v35H417.9z
		 M361.2,531.5v10.4h-5.3v9.5h5.3v15.5c0,5.7,0.8,7.7,3.1,10h19c-2-2-3.9-4.6-3.9-11.3v-14.1h5.7v-9.5h-5.7v-10.4H361.2z
		 M325.6,551.4h22.8v-9.5h-28.8c-9.4,0-12.5,5.2-12.5,10.6c0,5.8,4.1,9.2,9.5,10.8c3.4,1,6.6,1.5,10.2,1.9c4.3,0.4,5.6,0.6,5.6,2
		c0,1.4-2.3,2.2-7.7,2.2c-6.2-0.1-13.7-2.7-16.5-5.1v9.9c2.7,1.4,8.4,4,19.2,4c15,0,23.2-4.8,23.2-12.8c0-7.8-5.3-9-8-9.5
		c-4-0.7-10.3-0.9-15.1-1.5c-3.1-0.4-4-0.9-4-1.8C323.6,551.4,324.5,551.4,325.6,551.4 M268.9,541.8v35h18.2v-23.5
		c0-1.3,0.8-2,2.3-2h11.9v-9.5h-5.9c-3.1,0-6.4,1.4-8.3,5v-5H268.9z M231.9,559.1c0-6.1,1.5-9,4.6-9c3.5,0,5.2,4.5,5.2,8.6
		c0,4.2-0.8,9.4-4.8,9.5C233.6,568.4,231.9,565.5,231.9,559.1 M213.1,559.4c0,10.6,5.7,18.5,16.9,18.5c4.8,0,8.3-1.1,11-5.5v18.2
		h18.2v-48.8H241v4.1c-2.4-3.4-6.8-5.4-11.6-5.4C219,540.6,213.1,548.6,213.1,559.4 M177.4,558.8c0-4.1,1.8-8.6,5.2-8.6
		c3.1,0,4.6,2.9,4.6,9c0,6.4-1.7,9.2-5,9.2C178.1,568.2,177.4,563,177.4,558.8 M206,559.4c0-10.8-5.9-18.8-16.4-18.8
		c-4.8,0-9.1,2-11.6,5.4v-4.1h-18.2v48.8h18.2v-18.2c2.7,4.3,6.2,5.5,11,5.5C200.3,577.9,206,570,206,559.4"/>
	<path style="clip-path:url(#SVGID_00000124853496916644143180000008347673564555614120_);fill:#060708;" d="M718.5,488.2
		c0-5,0.8-9.8,5.2-9.8c4.4,0,5.2,4.8,5.2,9.8c0,4.8-0.8,10.1-5.2,10.1C719.3,498.3,718.5,493,718.5,488.2 M699.5,488.2
		c0,11.7,10.3,18.8,24.3,18.8s24.3-7.1,24.3-18.8c0-11.3-10.3-18.5-24.3-18.5S699.5,476.9,699.5,488.2 M647.2,470.8v35h18.2v-21.1
		c0-3.9,2-5.6,4.8-5.6c2.6,0,3.4,2.2,3.4,5v21.7h18.2v-23.9c0-7.5-4.8-12.2-13.7-12.2c-6.4,0-10.7,2.4-12.7,5.6v-4.5H647.2z
		 M588.9,485v20.7h-18.2v-35h18.2v4.5c2-3.1,5.3-5.6,11.6-5.6c6.9,0,10.1,2.9,11.6,5.2c1.8-2.5,5.2-5.2,11.7-5.2
		c7,0,13.9,2.6,13.9,13.2v22.9h-18.2v-23c0-1.7-0.7-3.1-3.1-3c-2,0.1-3.1,1.5-3.1,5.2v20.8H595v-23c0-1.7-0.7-3.1-3.1-3
		C590,479.9,588.9,481.4,588.9,485 M542.9,505.8h18.2v-49.7h-18.2V505.8z M488.5,456.1v49.7h18.2v-14.4l9.1,14.4h20.9l-12.5-19.2
		l12.5-15.8h-20.9l-9.1,12.5v-27.2H488.5z M460.7,468h18.2v-11.9h-18.2V468z M460.7,470.8v37.3c0,2-0.9,2.2-2.4,2.2h-3.1v9.2h13.1
		c6.8,0,10.6-4.5,10.6-10.9v-37.9H460.7z M433.4,468h18.2v-11.9h-18.2V468z M433.4,505.8h18.2v-35h-18.2V505.8z M379.4,456.1v49.7
		h18.2v-21.1c0-3.9,2-5.6,4.8-5.6c2.6,0,3.4,2.2,3.4,5v21.7H424v-23.9c0-7.5-4.8-12.2-13.7-12.2c-6.4,0-10.7,2.4-12.7,5.6v-19.2
		H379.4z M342.3,488.2c0-6.1,1.5-9,4.6-9c3.5,0,5.2,4.5,5.2,8.6c0,4.2-0.8,9.4-4.8,9.5C344,497.4,342.3,494.6,342.3,488.2
		 M369.7,507v-36.2h-18.2v4.2c-2.5-3.4-6.8-5.3-11.6-5.3c-10.5,0-16.4,8-16.4,18.8c0,10.6,5.7,18.5,16.9,18.5c4.8,0,8.3-1.1,11-5.5
		v6.7c0,2-1.8,2.2-3.1,2.2h-19.6v9.2h29.7C364.1,519.6,369.7,517,369.7,507 M310.7,505.8v-25.5h6.7v-9.5h-6.7v-3
		c0-1.3,0.4-2.2,2.4-2.2h4.3v-9.5H304c-5.7,0-11.6,2.6-11.6,12.2v2.5h-5.3v9.5h5.3v25.5H310.7z M253.1,484.9
		c0.1-2.7,0.8-6.1,4.9-6.1c3.6,0,4.8,2.7,4.8,6.1H253.1z M245,456.1l7.9,10.4h14.1l-4.3-10.4H245z M234.3,488.5
		c0,7.6,4.6,17.3,19.9,17.3h23.7v-9.5H259c-3.7,0-5.7-1.3-5.8-4.8h28.4v-1.8c-0.1-16.9-11.1-20-23.6-20
		C238.9,469.7,234.3,481.1,234.3,488.5 M199.5,484.9c0.1-2.7,0.8-6.1,4.9-6.1c3.6,0,4.8,2.7,4.8,6.1H199.5z M188.3,466.6h14.1l2.2-4
		l2.1,4h14.1l-8.8-10.4H197L188.3,466.6z M180.6,488.5c0,7.6,4.6,17.3,19.9,17.3h23.7v-9.5h-18.9c-3.7,0-5.7-1.3-5.8-4.8h28.4v-1.8
		c-0.1-16.9-11.1-20-23.6-20C185.3,469.7,180.6,481.1,180.6,488.5 M145.8,484.9c0.1-2.7,0.8-6.1,4.9-6.1c3.6,0,4.8,2.7,4.8,6.1
		H145.8z M143.2,466.6h14.1l7.9-10.4h-17.8L143.2,466.6z M127,488.5c0,7.6,4.6,17.3,19.9,17.3h23.7v-9.5h-18.9
		c-3.7,0-5.7-1.3-5.8-4.8h28.4v-1.8c-0.1-16.9-11.1-20-23.6-20C131.6,469.7,127,481.1,127,488.5"/>
	<path style="clip-path:url(#SVGID_00000124853496916644143180000008347673564555614120_);fill:#060708;" d="M707.8,413.9
		c0.1-2.7,0.8-6.1,4.9-6.1c3.6,0,4.8,2.7,4.8,6.1H707.8z M689,417.5c0,7.6,4.6,17.3,20,17.3h23.7v-9.5h-18.9c-3.7,0-5.7-1.3-5.8-4.8
		h28.4v-1.8c-0.1-16.9-11.1-20-23.6-20C693.6,398.7,689,410.1,689,417.5 M653.6,417.1c0-6.1,1.5-9,4.6-9c3.5,0,5.2,4.5,5.2,8.6
		c0,4.2-0.8,9.5-4.8,9.5C655.2,426.4,653.6,423.5,653.6,417.1 M634.8,417.4c0,10.6,5.7,18.5,16.9,18.5c4.8,0,8.3-1.1,11-5.5v4.4
		h18.2v-49.7h-18.2V404c-2.5-3.4-6.8-5.4-11.5-5.4C640.7,398.6,634.8,406.6,634.8,417.4 M586,416.9c0,11.7,8.3,17,19.1,18.5
		l-1.1,4.6l4.3,0.1c2.2,0,3,0.5,3.2,1.5c0.2,1.5-1.2,2-3.2,2c-2,0-5.6-0.8-8-2v5.5c0.8,0.4,4.9,2.2,9.7,2.2c7.6,0,10.4-3.1,10.4-6
		c0-4.3-3.7-5.8-8.1-5.8l0.6-1.5c8.6-0.1,12.9-2.7,14.2-3.5v-9.6c-4.3,2.4-8.2,3.2-11.4,3.2c-5.7,0-10.6-2.5-10.6-8.8
		c0-5.8,4.2-8.8,10.6-8.8c3.2,0,7.2,0.8,11.5,3.2v-9.6c-4.3-2.2-10.6-3.4-15.9-3.4C602.2,398.7,586,402.2,586,416.9 M537.7,416.9
		c0,14.2,12.3,19,26.3,19c9,0,13.4-2.7,14.8-3.5v-9.6c-4.3,2.4-8.2,3.2-11.4,3.2c-5.7,0-10.6-2.5-10.6-8.8c0-5.8,4.2-8.8,10.6-8.8
		c3.2,0,7.2,0.8,11.5,3.2v-9.6c-4.3-2.2-10.6-3.4-15.9-3.4C553.8,398.7,537.7,402.2,537.7,416.9 M502.2,416.8c0-4.1,1.8-8.6,5.2-8.6
		c3.1,0,4.6,2.9,4.6,9c0,6.4-1.7,9.2-5,9.2C503,426.2,502.2,421,502.2,416.8 M530.9,417.4c0-10.8-5.9-18.8-16.4-18.8
		c-4.8,0-9.1,2-11.6,5.4v-18.8h-18.2v49.7h18.2v-4.4c2.7,4.3,6.2,5.5,11,5.5C525.2,435.9,530.9,428,530.9,417.4 M447.2,422.4
		c0-1.1,0.5-3.3,2.8-4.1c2-0.7,5.5-1.5,6.2-1.6v5.7c0,3.1-2.5,4.1-4.8,4.1C448.5,426.4,447.2,425.2,447.2,422.4 M437.8,385.1
		l7.9,10.4h14.1l-4.3-10.4H437.8z M456.3,411.7v0.9c-5.2,0.6-17,2-20.6,3.1c-4.8,1.5-7.2,4.1-7.2,8.6c0,7.9,7.5,11.7,15.4,11.7
		c6,0,10.4-2.2,12.5-5.8c0.2,1.8,1,3.6,1.7,4.7h19.7c-3.2-4.9-3.3-8.8-3.3-11.5V412c0-9.6-7.2-12.2-12.9-12.2h-30v9.5h21.6
		C454.8,409.4,456.3,409.6,456.3,411.7 M392.8,422.4c0-1.1,0.5-3.3,2.8-4.1c2-0.7,5.5-1.5,6.2-1.6v5.7c0,3.1-2.5,4.1-4.8,4.1
		C394.1,426.4,392.8,425.2,392.8,422.4 M381.4,395.6h14.1l2.2-4l2.1,4H414l-8.8-10.4h-15L381.4,395.6z M401.8,411.7v0.9
		c-5.2,0.6-17,2-20.6,3.1c-4.8,1.5-7.2,4.1-7.2,8.6c0,7.9,7.5,11.7,15.4,11.7c6,0,10.4-2.2,12.5-5.8c0.2,1.8,1,3.6,1.7,4.7h19.7
		c-3.2-4.9-3.3-8.8-3.3-11.5V412c0-9.6-7.2-12.2-12.9-12.2h-30v9.5h21.6C400.4,409.4,401.8,409.6,401.8,411.7 M338.4,422.4
		c0-1.1,0.5-3.3,2.8-4.1c2-0.7,5.5-1.5,6.2-1.6v5.7c0,3.1-2.5,4.1-4.8,4.1C339.7,426.4,338.4,425.2,338.4,422.4 M347.4,411.7v0.9
		c-5.2,0.6-17,2-20.6,3.1c-4.8,1.5-7.2,4.1-7.2,8.6c0,7.9,7.5,11.7,15.4,11.7c5.9,0,10.4-2.2,12.5-5.8c0.2,1.8,1,3.6,1.7,4.7h19.7
		c-3.2-4.9-3.3-8.8-3.3-11.5V412c0-9.6-7.2-12.2-12.9-12.2h-30v9.5h21.6C346,409.4,347.4,409.6,347.4,411.7 M286.9,423.1l26.4-24.9
		v-13.1h-49.1v11.8h24.6l-25.2,24.8v13.1h49.6v-11.8H286.9z M240.3,434.8h-19v-13.6l-18.4-36h21l7,19l6.3-19h21l-17.8,36V434.8z
		 M138.4,434.8l17.5-24.1l-18.2-25.5h24.5l7,12.9l7.4-12.9h20.9l-18,24.4l18.1,25.3h-24.9l-6.3-12.9l-7,12.9H138.4z"/>
	<path style="clip-path:url(#SVGID_00000124853496916644143180000008347673564555614120_);fill:#060708;" d="M677.2,314.1l13,49.7
		h19.1l5.5-23.9l5.5,23.9h20l13.9-49.7h-19l-6.6,30.4l-6.8-30.4h-13.6l-6.7,31.1l-5.8-31.1H677.2z M643.4,346.5l8.8-32.4h19.3
		l-16.7,49.7h-23.7l-17.9-49.7h19.7L643.4,346.5z M581.8,365c16.9,0,25-9,25-20.4v-30.4h-19V346c0,3.6-1.5,6.7-6,6.7
		c-4.5,0-5.9-3.1-5.9-6.7v-31.8h-19v30.4C556.8,355.9,564.9,365,581.8,365 M549.9,314.1h-53.4V326h17.1v37.8h19.1V326h17.1V314.1z
		 M448.5,344.1c5.2,2,14.3,3,20.8,3.4c2.2,0.1,3.9,0.5,3.9,2.2c0,2-2.9,2.9-8.8,2.9c-11.5,0-20.8-3.9-24.3-6.1v12.7
		c3,2,13,5.6,25.3,5.6c15.1,0,26.5-6.3,26.5-18.7c0-9-6.1-12.2-11.3-13.6c-4.7-1.3-12-1.5-19-2.3c-1.4-0.1-4.3-0.4-4.3-2.6
		c0-1.3,0.9-1.9,2.5-1.9H489v-11.8h-34.5c-10.2,0-16.2,6.4-16.2,15.2C438.3,335.6,441.4,341.4,448.5,344.1 M398.9,335.9v-10h5.3
		c4.8,0,6,2.7,6,5.1c0,2.6-1.1,4.9-6,4.9H398.9z M398.9,363.8v-16.5h6.4c3.4,0,4.7,1.3,4.7,4.2v8c0,2.1,0.7,3.6,2.5,4.3h18.8v-0.3
		c-1.6-1.4-1.9-4.1-1.9-6.4v-6.9c0-3.4-1.5-6.9-7.3-9.2c5-2.2,8-5.7,8-12.2c0-11.8-8.8-14.6-18.3-14.6h-31.9v49.7H398.9z
		 M329.8,338.8c0-11.6,4.2-14.3,9.3-14.3c5.1,0,9.3,2.7,9.3,14.3s-4.2,14.6-9.3,14.6C334,353.5,329.8,350.5,329.8,338.8 M310,338.8
		c0,16.4,12.2,26.1,29.9,26.1c6.9,0,7.3-1.1,17.9-1.1h13.4v-11.8H366c-2.2,0-4.5,1-4.5,1l-0.1-0.3c3.3-2,6.9-6.9,6.9-13.9
		c0-16.4-12.2-25.8-29.2-25.8C322.1,313,310,322.5,310,338.8 M272.1,339.4v-13.5h6.6c4.2,0,5.3,3.2,5.3,6.8c0,3.4-1.1,6.7-5.4,6.7
		H272.1z M272.1,363.8v-12.7h11.3c11,0,20.4-5.5,20.4-19.2c0-14.1-9.5-17.8-20.4-17.8h-30.4v49.7H272.1z M205.4,338.8
		c0-10.9,5-13.6,9-13.6c4,0,9,2.7,9,13.6c0,11.1-5,13.8-9,13.8C210.4,352.6,205.4,349.9,205.4,338.8 M244.6,338.8
		c0-16.4-15.3-25.8-30.2-25.8c-14.9,0-30.2,9.4-30.2,25.8c0,17.2,15.3,26.1,30.2,26.1C229.3,365,244.6,356.1,244.6,338.8
		 M122.6,363.8h17.9v-26l17.3,26.1h17.9v-49.7h-17.9v26.7l-17.3-26.7h-17.9V363.8z"/>
	<path style="clip-path:url(#SVGID_00000124853496916644143180000008347673564555614120_);fill:#060708;" d="M669.2,292.8h15.5
		v-34.1l8.2,34.1h14.9l9.2-34.6v34.6h14.9v-49.7h-22.8l-8.5,30.9l-6.4-30.9h-25V292.8z M618.1,243.1v49.7h44.2v-11.8h-25.1v-37.9
		H618.1z M554.6,243.1v49.7h19v-20.6l14,20.6h23.2l-18.8-26.5l17.6-23.2h-22.2l-13.9,19.1v-19.1H554.6z M543.9,285.7v-42.6h-19v35.4
		c0,1.4-1.1,2.5-2.5,2.5h-8.5v11.8h22.9C540.9,292.8,543.9,289.8,543.9,285.7 M487,292.8h19v-49.7h-19V292.8z M424.4,292.8h19v-19.1
		h14v19.2h19v-49.7h-19V262h-14v-18.8h-19V292.8z M393.9,261.2h20c-2.7-14.8-14.4-19.2-27.6-19.2c-18.5,0-29.5,10.1-29.5,26.5
		c0,17.1,9.8,25.5,24.8,25.5c7.8,0,12.5-2.3,15.4-6.2l0.3,5.1h16.9v-28.1h-28.7v11.8h7.9c-1.1,4.6-4.5,5.2-7.1,5.2
		c-4.5,0-8.1-3.6-8.1-13.8c0-10.2,4.1-13.5,8.5-13.5C388.9,254.3,392.6,255.5,393.9,261.2 M306.9,243.1v49.7h19v-18.6h20.8v-11.8
		h-20.8v-7.6h25.8v-11.8H306.9z M260.6,229.1l7.9,10.4h14.1l-4.3-10.4H260.6z M252.3,243.1v49.7h44.8v-11.8h-25.8V274h20.8v-11.8
		h-20.8v-7.4h25.8v-11.8H252.3z M197.7,243.1v49.7h44.8v-11.8h-25.8V274h20.8v-11.8h-20.8v-7.4h25.8v-11.8H197.7z M149.1,238.9h14.1
		l2.2-4l2.1,4h14.1l-8.8-10.4h-15.1L149.1,238.9z M143.1,243.1v49.7h44.8v-11.8h-25.8V274h20.8v-11.8h-20.8v-7.4h25.8v-11.8H143.1z"
		/>
	<path style="clip-path:url(#SVGID_00000124853496916644143180000008347673564555614120_);fill:#060708;" d="M731.9,168.6H746
		l7.9-10.4h-17.8L731.9,168.6z M718,172.1v49.7h44.8v-11.8h-25.8V203h20.8v-11.8h-20.8v-7.3h25.8v-11.8H718z M663.4,172.1v49.7h44.8
		v-11.8h-25.8V203h20.8v-11.8h-20.8v-7.3h25.8v-11.8H663.4z M620.3,210.2v-26.3h5.5c7.1,0,9,4.4,9,12.9c0,8.5-1.9,13.4-9,13.4H620.3
		z M601.3,172.1v49.7h30.4c13.5,0,23-9.3,23-25s-9.5-24.7-23-24.7H601.3z M541,197c0,18.3,15.8,26,31.4,26c7.5,0,14.5-1.8,18.7-3.9
		v-12.5c-3.5,1.7-7.8,3.6-12.9,3.6c-8,0-15.3-4.8-15.3-13.2s7.4-13.2,15.3-13.2c5,0,9.4,1.9,12.9,3.6v-12.5
		c-4.2-2.2-11.2-3.9-18.7-3.9C556.8,171,541,178.6,541,197 M502.4,192.2v-8.8h6.4c3.5,0,5,1.4,5,4.4c0,2.9-1.5,4.3-5.1,4.3H502.4z
		 M502.4,210.5v-9.2h7.3c3.5,0,4.8,1.8,4.8,4.5c0,2.7-1.3,4.7-4.8,4.7H502.4z M515.1,172.1h-31.8v49.7h34c10,0,17.4-4.1,17.4-13.5
		c0-6.9-3.3-10.9-9-12.7c5.1-2,7.6-5.9,7.6-11.2C533.3,174.7,526,172.1,515.1,172.1 M442,203.1l5.3-14.8l5,14.8H442z M420.3,221.8
		h14.9l2.5-7h18.4l2.3,7h18.7l-18-49.7h-20.6L420.3,221.8z M380,203.1l5.3-14.8l5,14.8H380z M358.4,221.8h14.9l2.5-7h18.4l2.3,7
		h18.7l-18-49.7h-20.6L358.4,221.8z M389.9,158.1h-17.8l7.9,10.4h14.1L389.9,158.1z M318,203.1l5.3-14.8l5,14.8H318z M296.4,221.8
		h14.9l2.5-7h18.4l2.3,7h18.7l-18-49.7h-20.6L296.4,221.8z M256,203.1l5.3-14.8l5,14.8H256z M234.4,221.8h14.9l2.5-7h18.4l2.3,7
		h18.7l-18-49.7h-20.6L234.4,221.8z M270.3,157.5h-15.1l-8.7,10.4h14.1l2.2-4l2.1,4H279L270.3,157.5z M194,203.1l5.3-14.8l5,14.8
		H194z M172.4,221.8h14.9l2.5-7h18.4l2.3,7h18.7l-18-49.7h-20.6L172.4,221.8z M197.3,157.4l-4.3,10.4h14.1l7.9-10.4H197.3z
		 M132,203.1l5.3-14.8l5,14.8H132z M110.4,221.8h14.9l2.5-7h18.4l2.3,7h18.7l-18-49.7h-20.6L110.4,221.8z"/>
	<path style="clip-path:url(#SVGID_00000124853496916644143180000008347673564555614120_);fill:#060708;" d="M1541.8,788.8
		c0-2.5,0.4-4.9,2.6-4.9c2.2,0,2.6,2.4,2.6,4.9c0,2.4-0.4,5-2.6,5C1542.3,793.8,1541.8,791.2,1541.8,788.8 M1532.3,788.8
		c0,5.8,5.1,9.4,12.1,9.4s12.1-3.5,12.1-9.4c0-5.6-5.1-9.2-12.1-9.2S1532.3,783.2,1532.3,788.8 M1516.2,788.6c0-2.1,0.9-4.3,2.6-4.3
		c1.6,0,2.3,1.4,2.3,4.5c0,3.2-0.8,4.6-2.5,4.6C1516.5,793.3,1516.2,790.7,1516.2,788.6 M1530.5,788.9c0-5.4-2.9-9.4-8.2-9.4
		c-2.4,0-4.6,1-5.8,2.7v-9.4h-9.1v24.8h9.1v-2.2c1.4,2.2,3.1,2.7,5.5,2.7C1527.6,798.1,1530.5,794.2,1530.5,788.9 M1490.1,791.4
		c0-0.6,0.2-1.6,1.4-2.1c1-0.3,2.7-0.7,3.1-0.8v2.9c0,1.6-1.3,2-2.4,2C1490.8,793.4,1490.1,792.8,1490.1,791.4 M1494.6,786v0.5
		c-2.6,0.3-8.5,1-10.3,1.5c-2.4,0.7-3.6,2.1-3.6,4.3c0,4,3.7,5.8,7.7,5.8c3,0,5.2-1.1,6.2-2.9c0.1,0.9,0.5,1.8,0.8,2.3h9.9
		c-1.6-2.5-1.6-4.4-1.6-5.7v-5.7c0-4.8-3.6-6.1-6.4-6.1h-15v4.8h10.8C1493.9,784.9,1494.6,785,1494.6,786 M1467.5,774.9v5.2h-2.7
		v4.8h2.7v7.7c0,2.8,0.4,3.8,1.5,5h9.5c-1-1-2-2.3-2-5.7v-7.1h2.9v-4.8h-2.9v-5.2H1467.5z M1449.4,787.2c0-1.3,0.4-3,2.4-3
		c1.8,0,2.4,1.3,2.4,3H1449.4z M1440,789c0,3.8,2.3,8.6,10,8.6h11.8v-4.8h-9.5c-1.9,0-2.9-0.6-2.9-2.4h14.2v-0.9
		c0-8.5-5.6-10-11.8-10C1442.3,779.6,1440,785.2,1440,789 M1405.9,797.6h7.7v-17l4.1,17h7.5l4.6-17.3v17.3h7.5v-24.8h-11.4
		l-4.2,15.4l-3.2-15.4h-12.5V797.6z"/>
	<path style="clip-path:url(#SVGID_00000124853496916644143180000008347673564555614120_);fill:#060708;" d="M1571.6,753.8
		c0-2.5,0.4-4.9,2.6-4.9c2.2,0,2.6,2.4,2.6,4.9c0,2.4-0.4,5-2.6,5C1572,758.8,1571.6,756.2,1571.6,753.8 M1562.1,753.8
		c0,5.8,5.1,9.4,12.1,9.4s12.1-3.5,12.1-9.4c0-5.6-5.1-9.2-12.1-9.2S1562.1,748.2,1562.1,753.8 M1534.9,750.2c0,9.2,7.9,13,15.7,13
		c3.7,0,7.2-0.9,9.3-2V755c-1.8,0.8-3.9,1.8-6.4,1.8c-4,0-7.7-2.4-7.7-6.6s3.7-6.6,7.7-6.6c2.5,0,4.7,0.9,6.4,1.8v-6.2
		c-2.1-1.1-5.6-2-9.3-2C1542.8,737.2,1534.9,741,1534.9,750.2 M1507.1,754.6c0-1.4,0.4-2.3,2.5-2.3h2.6v4.6h-2.6
		C1507.6,756.9,1507.1,756,1507.1,754.6 M1510.1,743.4h2.2v-5.7h-4.7c-5.5,0-9.5,1.5-9.5,6.6c0,3.4,2.5,5,4.8,5.4v0.2
		c-2.4,0.3-5.6,1.5-5.6,5.9c0,4.5,4.2,6.8,8.5,6.8h16v-10.3h2v-4.5h-2v-2.2h-9.5v2.2h-2.2c-2.1,0-2.7-0.7-2.7-2.2
		C1507.4,744.1,1508,743.4,1510.1,743.4 M1476.6,743.7h9.1v-6h-9.1V743.7z M1476.6,762.6h9.1v-17.5h-9.1V762.6z M1462.1,739.9v5.2
		h-2.7v4.8h2.7v7.7c0,2.8,0.4,3.8,1.5,5h9.5c-1-1-2-2.3-2-5.7v-7.1h2.9v-4.8h-2.9v-5.2H1462.1z M1448,762.6h9.1v-24.8h-9.1V762.6z
		 M1435.6,743.7h9.1v-6h-9.1V743.7z M1435.6,762.6h9.1v-17.5h-9.1V762.6z M1406,762.6h9.5v-9.6h7v9.6h9.5v-24.8h-9.5v9.4h-7v-9.4
		h-9.5V762.6z"/>
	<path style="clip-path:url(#SVGID_00000124853496916644143180000008347673564555614120_);fill:#060708;" d="M1532.9,710.1v17.5h9.1
		v-10.5c0-2,1-2.8,2.4-2.8c1.3,0,1.7,1.1,1.7,2.5v10.9h9.1v-12c0-3.7-2.4-6.1-6.9-6.1c-3.2,0-5.4,1.2-6.3,2.8v-2.2H1532.9z
		 M1516.1,717.2c0-1.3,0.4-3,2.5-3c1.8,0,2.4,1.3,2.4,3H1516.1z M1506.7,719c0,3.8,2.3,8.6,10,8.6h11.8v-4.8h-9.4
		c-1.9,0-2.9-0.6-2.9-2.4h14.2v-0.9c0-8.5-5.6-10-11.8-10C1509,709.6,1506.7,715.2,1506.7,719 M1490.4,718.8c0-3,0.7-4.5,2.3-4.5
		c1.8,0,2.6,2.2,2.6,4.3c0,2.1-0.4,4.7-2.4,4.8C1491.3,723.4,1490.4,721.9,1490.4,718.8 M1481.1,718.9c0,5.3,2.8,9.2,8.5,9.2
		c2.4,0,4.1-0.6,5.5-2.7v2.2h9.1v-24.9h-9.1v9.4c-1.2-1.7-3.4-2.7-5.8-2.7C1484,709.5,1481.1,713.5,1481.1,718.9 M1463.5,710.1v17.5
		h9.1v-11.7c0-0.7,0.4-1,1.2-1h6v-4.8h-3c-1.6,0-3.2,0.7-4.1,2.5v-2.5H1463.5z M1446.2,721.4c0-0.6,0.2-1.6,1.4-2.1
		c1-0.3,2.7-0.7,3.1-0.8v2.9c0,1.6-1.3,2-2.4,2C1446.9,723.4,1446.2,722.8,1446.2,721.4 M1450.8,716v0.5c-2.6,0.3-8.5,1-10.3,1.5
		c-2.4,0.7-3.6,2.1-3.6,4.3c0,4,3.7,5.8,7.7,5.8c3,0,5.2-1.1,6.2-2.9c0.1,0.9,0.5,1.8,0.8,2.3h9.9c-1.6-2.5-1.6-4.4-1.6-5.7v-5.7
		c0-4.8-3.6-6.1-6.4-6.1h-15v4.8h10.8C1450,714.9,1450.8,715,1450.8,716 M1424.1,711.8h10c-1.3-7.4-7.2-9.6-13.8-9.6
		c-9.3,0-14.8,5-14.8,13.2c0,8.5,4.9,12.7,12.4,12.7c3.9,0,6.2-1.2,7.7-3.1l0.1,2.6h8.4v-14.1h-14.3v5.9h4c-0.6,2.3-2.2,2.6-3.6,2.6
		c-2.2,0-4.1-1.8-4.1-6.9c0-5.1,2-6.8,4.2-6.8C1421.5,708.4,1423.4,708.9,1424.1,711.8"/>
	<path style="clip-path:url(#SVGID_00000124853496916644143180000008347673564555614120_);fill:#060708;" d="M1556,692.6h9.1v-24.9
		h-9.1V692.6z M1543.6,692.6h9.1v-24.9h-9.1V692.6z M1531.2,673.7h9.1v-6h-9.1V673.7z M1531.2,692.6h9.1v-17.5h-9.1V692.6z
		 M1513,675.1v17.5h9.1v-11.7c0-0.7,0.4-1,1.2-1h6v-4.8h-3c-1.6,0-3.2,0.7-4.1,2.5v-2.5H1513z M1493,686.8v-13.2h2.7
		c3.6,0,4.5,2.2,4.5,6.5s-0.9,6.7-4.5,6.7H1493z M1483.5,667.8v24.9h15.2c6.8,0,11.5-4.7,11.5-12.5s-4.7-12.4-11.5-12.4H1483.5z
		 M1457.9,684l4.4-16.2h9.7l-8.4,24.9h-11.9l-9-24.9h9.9L1457.9,684z M1421.9,689.2v3.5h20.2v-5.9h-10c3.2-2.4,10.3-4.5,10.3-11.5
		c0-5.1-4.6-8-11-8c-5,0-7.9,1.3-9.3,2v6.8c1-0.6,3.4-1.7,6.4-1.7c2.9,0,4.5,0.8,4.5,2.9C1433,681.3,1422.3,683.4,1421.9,689.2
		 M1418.7,667.8h-13.3v5.9h3.8v19h9.5V667.8z"/>
	<path style="clip-path:url(#SVGID_00000124853496916644143180000008347673564555614120_);fill:#060708;" d="M1529.2,651.4
		c0-0.6,0.2-1.6,1.4-2.1c1-0.3,2.7-0.7,3.1-0.8v2.9c0,1.6-1.3,2-2.4,2C1529.9,653.4,1529.2,652.8,1529.2,651.4 M1533.7,646v0.5
		c-2.6,0.3-8.5,1-10.3,1.5c-2.4,0.7-3.6,2.1-3.6,4.3c0,4,3.7,5.8,7.7,5.8c3,0,5.2-1.1,6.2-2.9c0.1,0.9,0.5,1.8,0.8,2.3h9.9
		c-1.6-2.5-1.6-4.4-1.6-5.7v-5.7c0-4.8-3.6-6.1-6.4-6.1h-15v4.8h10.8C1533,644.9,1533.7,645,1533.7,646 M1506.6,634.9v5.2h-2.7v4.8
		h2.7v7.7c0,2.8,0.4,3.8,1.5,5h9.5c-1-1-2-2.3-2-5.7v-7.1h2.9v-4.8h-2.9v-5.2H1506.6z M1492.5,638.7h9.1v-6h-9.1V638.7z
		 M1492.5,657.6h9.1v-17.5h-9.1V657.6z M1466.7,632.8v24.8h9.1v-7.2l4.5,7.2h10.5l-6.3-9.6l6.3-7.9h-10.5l-4.5,6.3v-13.6H1466.7z
		 M1449.4,651.4c0-0.6,0.2-1.6,1.4-2.1c1-0.3,2.7-0.7,3.1-0.8v2.9c0,1.6-1.3,2-2.4,2C1450.1,653.4,1449.4,652.8,1449.4,651.4
		 M1453.9,646v0.5c-2.6,0.3-8.5,1-10.3,1.5c-2.4,0.7-3.6,2.1-3.6,4.3c0,4,3.7,5.8,7.7,5.8c3,0,5.2-1.1,6.2-2.9
		c0.1,0.9,0.5,1.8,0.8,2.3h9.9c-1.6-2.5-1.6-4.4-1.6-5.7v-5.7c0-4.8-3.6-6.1-6.4-6.1h-15v4.8h10.8
		C1453.2,644.9,1453.9,645,1453.9,646 M1405.9,657.6h7.7v-17l4.1,17h7.5l4.6-17.3v17.3h7.5v-24.8h-11.4l-4.2,15.4l-3.2-15.4h-12.5
		V657.6z"/>
	<path style="clip-path:url(#SVGID_00000124853496916644143180000008347673564555614120_);fill:#060708;" d="M1573.2,609.9h11.4
		v-4.8h-14.4c-4.7,0-6.2,2.6-6.2,5.3c0,2.9,2,4.6,4.8,5.4c1.7,0.5,3.3,0.8,5.1,0.9c2.2,0.2,2.8,0.3,2.8,1c0,0.7-1.2,1.1-3.8,1.1
		c-3.1,0-6.9-1.3-8.3-2.6v4.9c1.4,0.7,4.2,2,9.6,2c7.5,0,11.6-2.4,11.6-6.4c0-3.9-2.7-4.5-4-4.7c-2-0.3-5.1-0.5-7.5-0.8
		c-1.6-0.2-2-0.5-2-0.9C1572.2,609.9,1572.6,609.9,1573.2,609.9 M1549.7,609.9h11.4v-4.8h-14.4c-4.7,0-6.2,2.6-6.2,5.3
		c0,2.9,2,4.6,4.8,5.4c1.7,0.5,3.3,0.8,5.1,0.9c2.2,0.2,2.8,0.3,2.8,1c0,0.7-1.2,1.1-3.8,1.1c-3.1,0-6.9-1.3-8.3-2.6v4.9
		c1.4,0.7,4.2,2,9.6,2c7.5,0,11.6-2.4,11.6-6.4c0-3.9-2.7-4.5-4-4.7c-2-0.3-5.1-0.5-7.5-0.8c-1.6-0.2-2-0.5-2-0.9
		C1548.7,609.9,1549.2,609.9,1549.7,609.9 M1524.5,612.2c0-1.3,0.4-3,2.4-3c1.8,0,2.4,1.3,2.4,3H1524.5z M1515.1,614
		c0,3.8,2.3,8.6,10,8.6h11.8v-4.8h-9.5c-1.9,0-2.9-0.6-2.9-2.4h14.2v-0.9c0-8.5-5.6-10-11.8-10
		C1517.4,604.6,1515.1,610.2,1515.1,614 M1503.4,622.6h9.1v-24.9h-9.1V622.6z M1486.4,613.8c0-3,0.7-4.5,2.3-4.5
		c1.8,0,2.6,2.2,2.6,4.3c0,2.1-0.4,4.7-2.4,4.8C1487.3,618.4,1486.4,616.9,1486.4,613.8 M1477,613.9c0,5.3,2.8,9.2,8.5,9.2
		c2.4,0,4.1-0.6,5.5-2.7v2.2h9.1v-24.9h-9.1v9.4c-1.2-1.7-3.4-2.7-5.8-2.7C1480,604.5,1477,608.5,1477,613.9 M1459.5,605.1v17.5h9.1
		v-11.7c0-0.7,0.4-1,1.2-1h5.9v-4.8h-3c-1.6,0-3.2,0.7-4.1,2.5v-2.5H1459.5z M1442.2,613.8c0-2.5,0.4-4.9,2.6-4.9
		c2.2,0,2.6,2.4,2.6,4.9c0,2.4-0.4,5-2.6,5C1442.6,618.8,1442.2,616.2,1442.2,613.8 M1432.7,613.8c0,5.8,5.1,9.4,12.1,9.4
		s12.1-3.5,12.1-9.4c0-5.6-5.1-9.2-12.1-9.2S1432.7,608.2,1432.7,613.8 M1405.5,610.2c0,9.2,7.9,13,15.7,13c3.7,0,7.2-0.9,9.3-2V615
		c-1.8,0.8-3.9,1.8-6.4,1.8c-4,0-7.7-2.4-7.7-6.6c0-4.2,3.7-6.6,7.7-6.6c2.5,0,4.7,0.9,6.4,1.8v-6.2c-2.1-1.1-5.6-2-9.3-2
		C1413.4,597.2,1405.5,601,1405.5,610.2"/>
	<path style="clip-path:url(#SVGID_00000124853496916644143180000008347673564555614120_);fill:#060708;" d="M1329.3,791.4
		c0-0.6,0.2-1.6,1.4-2.1c1-0.4,2.7-0.7,3.1-0.8v2.9c0,1.6-1.3,2-2.4,2C1329.9,793.4,1329.3,792.8,1329.3,791.4 M1333.8,786v0.5
		c-2.6,0.3-8.5,1-10.3,1.5c-2.4,0.7-3.6,2.1-3.6,4.3c0,4,3.7,5.8,7.7,5.8c3,0,5.2-1.1,6.2-2.9c0.1,0.9,0.5,1.8,0.8,2.3h9.9
		c-1.6-2.5-1.6-4.4-1.6-5.7v-5.7c0-4.8-3.6-6.1-6.4-6.1h-15v4.8h10.8C1333.1,784.9,1333.8,785,1333.8,786 M1308.2,797.6h9.1v-24.9
		h-9.1V797.6z M1295.8,797.6h9.1v-24.9h-9.1V797.6z M1270.4,772.8v24.9h22.4v-5.9h-12.9v-3.5h10.4v-5.9h-10.4v-3.7h12.9v-5.9H1270.4
		z M1249,778.7h9.1v-6h-9.1V778.7z M1249,797.6h9.1v-17.5h-9.1V797.6z M1223.5,780.1v17.5h9.1v-10.5c0-2,1-2.8,2.4-2.8
		c1.3,0,1.7,1.1,1.7,2.5v10.9h9.1v-12c0-3.7-2.4-6.1-6.9-6.1c-3.2,0-5.4,1.2-6.3,2.8v-2.2H1223.5z M1211,797.6v-2.1
		c-1,1.5-2.5,2.7-6,2.7c-4.5,0-6.8-2.3-6.8-6.1v-12h9.1v10.4c0,1.4,0,2.5,1.6,2.5c1.7,0,2-1.2,2-2.8v-10.1h9.1v17.5H1211z
		 M1181.4,788.8c0-3,0.7-4.5,2.3-4.5c1.8,0,2.6,2.2,2.6,4.3c0,2.1-0.4,4.7-2.4,4.8C1182.2,793.4,1181.4,791.9,1181.4,788.8
		 M1172,788.9c0,5.3,2.8,9.2,8.5,9.2c2.4,0,4.1-0.6,5.5-2.7v2.2h9.1v-24.9h-9.1v9.4c-1.2-1.7-3.4-2.7-5.8-2.7
		C1175,779.5,1172,783.5,1172,788.9 M1147.2,780.1v17.5h9.1v-10.5c0-2,1-2.8,2.4-2.8c1.3,0,1.7,1.1,1.7,2.5v10.9h9.1v-12
		c0-3.7-2.4-6.1-6.9-6.1c-3.2,0-5.4,1.2-6.3,2.8v-2.2H1147.2z M1134.2,797.6h9.5v-24.9h-9.5V797.6z"/>
	<path style="clip-path:url(#SVGID_00000124853496916644143180000008347673564555614120_);fill:#060708;" d="M1362.1,739.9v5.2h-2.7
		v4.8h2.7v7.7c0,2.8,0.4,3.9,1.5,5h9.5c-1-1-2-2.3-2-5.7v-7.1h2.9v-4.8h-2.9v-5.2H1362.1z M1341.8,745.1v17.5h9.1v-11.7
		c0-0.7,0.4-1,1.2-1h5.9v-4.8h-3c-1.6,0-3.2,0.7-4.1,2.5v-2.5H1341.8z M1324.5,753.8c0-2.5,0.4-4.9,2.6-4.9c2.2,0,2.6,2.4,2.6,4.9
		c0,2.4-0.4,5-2.6,5C1324.9,758.8,1324.5,756.2,1324.5,753.8 M1315,753.8c0,5.8,5.1,9.4,12.1,9.4s12.1-3.5,12.1-9.4
		c0-5.6-5.1-9.2-12.1-9.2S1315,748.2,1315,753.8 M1298.8,753.6c0-2.1,0.9-4.3,2.6-4.3c1.6,0,2.3,1.4,2.3,4.5c0,3.2-0.8,4.6-2.5,4.6
		C1299.2,758.3,1298.8,755.7,1298.8,753.6 M1313.1,753.9c0-5.4-2.9-9.4-8.2-9.4c-2.4,0-4.6,1-5.8,2.7v-2.1h-9.1v24.4h9.1v-9.1
		c1.4,2.2,3.1,2.7,5.5,2.7C1310.3,763.1,1313.1,759.2,1313.1,753.9 M1275.1,749.9h11.4v-4.8h-14.4c-4.7,0-6.2,2.6-6.2,5.3
		c0,2.9,2,4.6,4.8,5.4c1.7,0.5,3.3,0.8,5.1,0.9c2.2,0.2,2.8,0.3,2.8,1c0,0.7-1.2,1.1-3.8,1.1c-3.1,0-6.9-1.3-8.3-2.6v4.9
		c1.4,0.7,4.2,2,9.6,2c7.5,0,11.6-2.4,11.6-6.4c0-3.9-2.7-4.5-4-4.7c-2-0.3-5.1-0.5-7.5-0.8c-1.6-0.2-2-0.5-2-0.9
		C1274,749.9,1274.5,749.9,1275.1,749.9 M1245.1,743.7h9.1v-6h-9.1V743.7z M1245.1,762.6h9.1v-17.5h-9.1V762.6z M1232.7,762.6h9.1
		v-24.9h-9.1V762.6z M1215.4,753.8c0-2.5,0.4-4.9,2.6-4.9s2.6,2.4,2.6,4.9c0,2.4-0.4,5-2.6,5S1215.4,756.2,1215.4,753.8
		 M1205.9,753.8c0,5.8,5.1,9.4,12.1,9.4s12.1-3.5,12.1-9.4c0-5.6-5.1-9.2-12.1-9.2S1205.9,748.2,1205.9,753.8 M1188.5,745.1v17.5
		h9.1v-11.7c0-0.7,0.4-1,1.2-1h6v-4.8h-3c-1.6,0-3.2,0.7-4.1,2.5v-2.5H1188.5z M1171.2,756.4c0-0.6,0.2-1.6,1.4-2.1
		c1-0.3,2.7-0.7,3.1-0.8v2.9c0,1.6-1.3,2-2.4,2C1171.8,758.4,1171.2,757.8,1171.2,756.4 M1175.7,751v0.5c-2.6,0.3-8.5,1-10.3,1.5
		c-2.4,0.7-3.6,2.1-3.6,4.3c0,4,3.7,5.8,7.7,5.8c3,0,5.2-1.1,6.2-2.9c0.1,0.9,0.5,1.8,0.8,2.3h9.9c-1.6-2.5-1.6-4.4-1.6-5.7v-5.7
		c0-4.8-3.6-6.1-6.4-6.1h-15v4.8h10.8C1175,749.9,1175.7,750,1175.7,751 M1143.7,747.8v-4.4h3.2c1.8,0,2.5,0.7,2.5,2.2
		c0,1.4-0.8,2.2-2.6,2.2H1143.7z M1143.7,756.9v-4.6h3.6c1.8,0,2.4,0.9,2.4,2.3c0,1.4-0.6,2.3-2.4,2.3H1143.7z M1150.1,737.8h-15.9
		v24.9h17c5,0,8.7-2,8.7-6.8c0-3.4-1.6-5.4-4.5-6.4c2.6-1,3.8-2.9,3.8-5.6C1159.2,739.1,1155.6,737.8,1150.1,737.8"/>
	<path style="clip-path:url(#SVGID_00000124853496916644143180000008347673564555614120_);fill:#060708;" d="M1278,727.6l7-8.5
		l-7.2-9h10.2l2.8,4l3.1-4h8.7l-7.3,8.6l7.2,8.9h-10.3l-2.6-4l-2.9,4H1278z M1263.2,717.2c0-1.3,0.4-3,2.4-3c1.8,0,2.4,1.3,2.4,3
		H1263.2z M1253.7,719c0,3.8,2.3,8.6,10,8.6h11.8v-4.8h-9.5c-1.9,0-2.9-0.6-2.9-2.4h14.2v-0.9c0-8.5-5.6-10-11.8-10
		C1256.1,709.6,1253.7,715.2,1253.7,719 M1236.3,710.1v17.5h9.1v-11.7c0-0.7,0.4-1,1.2-1h5.9v-4.8h-3c-1.6,0-3.2,0.7-4.1,2.5v-2.5
		H1236.3z M1219,718.8c0-2.5,0.4-4.9,2.6-4.9s2.6,2.4,2.6,4.9c0,2.4-0.4,5-2.6,5S1219,721.2,1219,718.8 M1209.5,718.8
		c0,5.8,5.1,9.4,12.1,9.4s12.1-3.5,12.1-9.4c0-5.6-5.1-9.2-12.1-9.2S1209.5,713.2,1209.5,718.8 M1196.3,704.9v5.2h-2.7v4.8h2.7v7.7
		c0,2.8,0.4,3.8,1.5,5h9.5c-1-1-2-2.3-2-5.7v-7.1h2.9v-4.8h-2.9v-5.2H1196.3z M1177.8,718.8c0-2.5,0.4-4.9,2.6-4.9
		c2.2,0,2.6,2.4,2.6,4.9c0,2.4-0.4,5-2.6,5C1178.2,723.8,1177.8,721.2,1177.8,718.8 M1168.2,718.8c0,5.8,5.1,9.4,12.1,9.4
		s12.1-3.5,12.1-9.4c0-5.6-5.1-9.2-12.1-9.2S1168.2,713.2,1168.2,718.8 M1134.2,727.6h7.7v-17l4.1,17h7.5l4.6-17.3v17.3h7.5v-24.8
		h-11.4l-4.2,15.4l-3.2-15.4h-12.5V727.6z"/>
	<path style="clip-path:url(#SVGID_00000124853496916644143180000008347673564555614120_);fill:#060708;" d="M1366.6,692.6h9.5
		v-24.9h-9.5V692.6z M1364.6,667.8h-26.7v6h8.6v18.9h9.6v-18.9h8.6V667.8z M1315.4,682.7c2.6,1,7.1,1.5,10.4,1.7
		c1.1,0.1,1.9,0.2,1.9,1.1c0,1-1.4,1.5-4.4,1.5c-5.8,0-10.4-1.9-12.1-3v6.4c1.5,1,6.5,2.8,12.7,2.8c7.5,0,13.2-3.2,13.2-9.3
		c0-4.5-3-6.1-5.6-6.8c-2.3-0.6-6-0.7-9.5-1.2c-0.7-0.1-2.2-0.2-2.2-1.3c0-0.6,0.5-0.9,1.3-0.9h14.6v-5.9h-17.3
		c-5.1,0-8.1,3.2-8.1,7.6C1310.3,678.5,1311.8,681.4,1315.4,682.7 M1284.2,686.4c0-0.6,0.2-1.6,1.4-2.1c1-0.4,2.7-0.7,3.1-0.8v2.9
		c0,1.6-1.3,2-2.4,2C1284.9,688.4,1284.2,687.8,1284.2,686.4 M1288.8,681v0.5c-2.6,0.3-8.5,1-10.3,1.5c-2.4,0.7-3.6,2.1-3.6,4.3
		c0,4,3.7,5.8,7.7,5.8c3,0,5.2-1.1,6.2-2.9c0.1,0.9,0.5,1.8,0.8,2.3h9.9c-1.6-2.5-1.6-4.4-1.6-5.7v-5.7c0-4.8-3.6-6.1-6.4-6.1h-15
		v4.8h10.8C1288,679.9,1288.8,680,1288.8,681 M1263.5,687.9l9.3-8.1v-4.6h-19.8v4.8h8.8l-9.1,8.1v4.6h20.1v-4.8H1263.5z
		 M1236.5,682.2c0-1.3,0.4-3,2.5-3c1.8,0,2.4,1.3,2.4,3H1236.5z M1227.1,684c0,3.8,2.3,8.6,10,8.6h11.8v-4.8h-9.4
		c-1.9,0-2.9-0.6-2.9-2.4h14.2v-0.9c0-8.5-5.6-10-11.8-10C1229.4,674.6,1227.1,680.2,1227.1,684 M1209.7,675.1v17.5h9.1v-11.7
		c0-0.7,0.4-1,1.2-1h6v-4.8h-3c-1.6,0-3.2,0.7-4.1,2.5v-2.5H1209.7z M1192.7,683.6c0-2.1,0.9-4.3,2.6-4.3c1.6,0,2.3,1.4,2.3,4.5
		c0,3.2-0.8,4.6-2.5,4.6C1193.1,688.3,1192.7,685.7,1192.7,683.6 M1207,683.9c0-5.4-2.9-9.4-8.2-9.4c-2.4,0-4.6,1-5.8,2.7v-2.1h-9.1
		v24.4h9.1v-9.1c1.4,2.2,3.1,2.7,5.5,2.7C1204.2,693.1,1207,689.2,1207,683.9 M1156.3,682.2v10.4h-9.1v-17.5h9.1v2.3
		c1-1.5,2.7-2.8,5.8-2.8c3.4,0,5,1.4,5.8,2.6c0.9-1.3,2.6-2.6,5.8-2.6c3.5,0,6.9,1.3,6.9,6.6v11.4h-9.1v-11.5c0-0.8-0.3-1.5-1.5-1.5
		c-1,0-1.5,0.8-1.5,2.6v10.4h-9.1v-11.5c0-0.8-0.3-1.5-1.5-1.5C1156.8,679.7,1156.3,680.4,1156.3,682.2 M1134.2,692.6h9.5v-24.9
		h-9.5V692.6z"/>
	<path style="clip-path:url(#SVGID_00000124853496916644143180000008347673564555614120_);fill:#060708;" d="M1270,657.6v-2.1
		c-1,1.5-2.4,2.7-5.9,2.7c-4.5,0-6.8-2.3-6.8-6.1v-12h9.1v10.4c0,1.4,0,2.5,1.6,2.5c1.7,0,2-1.2,2-2.8v-10.1h9.1v17.5H1270z
		 M1239.4,640.1v17.5h9.1v-11.7c0-0.7,0.4-1,1.2-1h6v-4.8h-3c-1.6,0-3.2,0.7-4.1,2.5v-2.5H1239.4z M1222.1,651.4
		c0-0.6,0.2-1.6,1.4-2.1c1-0.3,2.7-0.7,3.1-0.8v2.9c0,1.6-1.3,2-2.4,2C1222.8,653.4,1222.1,652.8,1222.1,651.4 M1226.6,646v0.5
		c-2.6,0.3-8.5,1-10.3,1.5c-2.4,0.7-3.6,2.1-3.6,4.3c0,4,3.7,5.8,7.7,5.8c3,0,5.2-1.1,6.2-2.9c0.1,0.9,0.5,1.8,0.8,2.3h9.9
		c-1.6-2.5-1.6-4.4-1.6-5.7v-5.7c0-4.8-3.6-6.1-6.4-6.1h-15v4.8h10.8C1225.9,644.9,1226.6,645,1226.6,646 M1196.7,648.6
		c0-2.1,0.9-4.3,2.6-4.3c1.6,0,2.3,1.4,2.3,4.5c0,3.2-0.8,4.6-2.5,4.6C1197.1,653.3,1196.7,650.7,1196.7,648.6 M1211,648.9
		c0-5.4-2.9-9.4-8.2-9.4c-2.4,0-4.6,1-5.8,2.7v-9.4h-9.1v24.9h9.1v-2.2c1.4,2.2,3.1,2.7,5.5,2.7C1208.2,658.1,1211,654.2,1211,648.9
		 M1175.5,657.6v-2.1c-1,1.5-2.5,2.7-6,2.7c-4.5,0-6.8-2.3-6.8-6.1v-12h9.1v10.4c0,1.4,0,2.5,1.6,2.5c1.7,0,2-1.2,2-2.8v-10.1h9.1
		v17.5H1175.5z M1138.7,647.7c2.6,1,7.1,1.5,10.4,1.7c1.1,0.1,1.9,0.2,1.9,1.1c0,1-1.4,1.5-4.4,1.5c-5.8,0-10.4-1.9-12.1-3v6.4
		c1.5,1,6.5,2.8,12.7,2.8c7.5,0,13.2-3.1,13.2-9.3c0-4.5-3-6.1-5.6-6.8c-2.3-0.6-6-0.7-9.5-1.2c-0.7-0.1-2.2-0.2-2.2-1.3
		c0-0.6,0.5-0.9,1.3-0.9h14.6v-5.9h-17.3c-5.1,0-8.1,3.2-8.1,7.6C1133.6,643.5,1135.1,646.4,1138.7,647.7"/>
	<path style="clip-path:url(#SVGID_00000124853496916644143180000008347673564555614120_);fill:#060708;" d="M1350.3,599.9v5.2h-2.7
		v4.8h2.7v7.7c0,2.8,0.4,3.9,1.5,5h9.5c-1-1-2-2.3-2-5.7v-7.1h2.9v-4.8h-2.9v-5.2H1350.3z M1336.1,603.7h9.1v-6h-9.1V603.7z
		 M1336.1,622.6h9.1v-17.5h-9.1V622.6z M1318,605.1v17.5h9.1v-11.7c0-0.7,0.4-1,1.2-1h5.9v-4.8h-3c-1.6,0-3.2,0.7-4.1,2.5v-2.5H1318
		z M1301.2,612.2c0-1.3,0.4-3,2.4-3c1.8,0,2.4,1.3,2.4,3H1301.2z M1291.7,614c0,3.8,2.3,8.6,10,8.6h11.8v-4.8h-9.5
		c-1.9,0-2.9-0.6-2.9-2.4h14.2v-0.9c0-8.5-5.6-10-11.8-10C1294,604.6,1291.7,610.2,1291.7,614 M1275.5,613.6c0-2.1,0.9-4.3,2.6-4.3
		c1.6,0,2.3,1.4,2.3,4.5c0,3.2-0.8,4.6-2.5,4.6C1275.9,618.3,1275.5,615.7,1275.5,613.6 M1289.8,613.9c0-5.4-2.9-9.4-8.2-9.4
		c-2.4,0-4.6,1-5.8,2.7v-9.4h-9.1v24.9h9.1v-2.2c1.4,2.2,3.1,2.7,5.5,2.7C1287,623.1,1289.8,619.2,1289.8,613.9 M1249.9,612.2
		c0-1.3,0.4-3,2.4-3c1.8,0,2.4,1.3,2.4,3H1249.9z M1240.5,614c0,3.8,2.3,8.6,10,8.6h11.8v-4.8h-9.4c-1.9,0-2.9-0.6-2.9-2.4h14.2
		v-0.9c0-8.5-5.6-10-11.8-10C1242.8,604.6,1240.5,610.2,1240.5,614 M1227.7,606.8h10c-1.3-7.4-7.2-9.6-13.8-9.6
		c-9.3,0-14.8,5-14.8,13.2c0,8.5,4.9,12.7,12.4,12.7c3.9,0,6.2-1.2,7.7-3.1l0.1,2.6h8.4v-14.1h-14.3v5.9h4c-0.6,2.3-2.2,2.6-3.6,2.6
		c-2.2,0-4.1-1.8-4.1-6.9c0-5.1,2-6.8,4.2-6.8C1225.2,603.4,1227,603.9,1227.7,606.8 M1172.2,610.2c0,9.2,7.9,13,15.7,13
		c3.7,0,7.2-0.9,9.3-2V615c-1.8,0.8-3.9,1.8-6.4,1.8c-4,0-7.7-2.4-7.7-6.6c0-4.2,3.7-6.6,7.7-6.6c2.5,0,4.7,0.9,6.4,1.8v-6.2
		c-2.1-1.1-5.6-2-9.3-2C1180.1,597.2,1172.2,601,1172.2,610.2 M1133.4,597.8l6.5,24.9h9.6l2.7-12l2.7,12h10l7-24.9h-9.5L1159,613
		l-3.4-15.2h-6.8l-3.3,15.5l-2.9-15.5H1133.4z"/>
	<path style="clip-path:url(#SVGID_00000124853496916644143180000008347673564555614120_);fill:#060708;" d="M987.6,772.8v24.8h9.1
		v-10.5c0-2,1-2.8,2.4-2.8c1.3,0,1.7,1.1,1.7,2.5v10.8h9.1v-12c0-3.7-2.4-6.1-6.9-6.1c-3.2,0-5.4,1.2-6.3,2.8v-9.6H987.6z
		 M973.2,774.9v5.2h-2.7v4.8h2.7v7.7c0,2.8,0.4,3.8,1.5,5h9.5c-1-1-2-2.3-2-5.7v-7.1h2.9v-4.8h-2.9v-5.2H973.2z M954.6,788.8
		c0-2.5,0.4-4.9,2.6-4.9s2.6,2.4,2.6,4.9c0,2.4-0.4,5-2.6,5S954.6,791.2,954.6,788.8 M945.1,788.8c0,5.8,5.1,9.4,12.1,9.4
		s12.1-3.5,12.1-9.4c0-5.6-5.1-9.2-12.1-9.2S945.1,783.2,945.1,788.8 M920.5,780.1v17.5h9.1v-10.5c0-2,1-2.8,2.4-2.8
		c1.3,0,1.7,1.1,1.7,2.5v10.8h9.1v-12c0-3.7-2.4-6.1-6.9-6.1c-3.2,0-5.4,1.2-6.3,2.8v-2.2H920.5z M908.1,778.7h9.1v-6h-9.1V778.7z
		 M908.1,797.6h9.1v-17.5h-9.1V797.6z M889.9,780.1v17.5h9.1v-11.7c0-0.7,0.4-1,1.2-1h6v-4.8h-3c-1.6,0-3.2,0.7-4.1,2.5v-2.5H889.9z
		 M871.9,785.4v-6.8h3.3c2.1,0,2.7,1.6,2.7,3.4c0,1.7-0.6,3.4-2.7,3.4H871.9z M871.9,797.6v-6.3h5.7c5.5,0,10.2-2.8,10.2-9.6
		c0-7-4.7-8.9-10.2-8.9h-15.2v24.8H871.9z"/>
	<path style="clip-path:url(#SVGID_00000124853496916644143180000008347673564555614120_);fill:#060708;" d="M1069.4,769.5h5.2
		c1.4,0,4.6-0.4,6-3.8l8.3-20.6h-8.6l-2.6,10.6l-2.3-10.6h-9.5l7.6,17.7c0.6,1.5-0.7,2.1-1.5,2.1h-2.6V769.5z M1055.3,762.6h9.1
		v-24.8h-9.1V762.6z M1042.9,762.6h9.1v-24.8h-9.1V762.6z M1030.4,762.6v-2.1c-1,1.5-2.5,2.7-6,2.7c-4.5,0-6.8-2.3-6.8-6.1v-12h9.1
		v10.4c0,1.4,0,2.5,1.6,2.5c1.7,0,2-1.2,2-2.8v-10.1h9.1v17.5H1030.4z M1000.8,753.6c0-2.1,0.9-4.3,2.6-4.3c1.6,0,2.3,1.4,2.3,4.5
		c0,3.2-0.8,4.6-2.5,4.6C1001.2,758.3,1000.8,755.7,1000.8,753.6 M1015.2,753.9c0-5.4-2.9-9.4-8.2-9.4c-2.4,0-4.5,1-5.8,2.7v-9.4
		h-9.1v24.8h9.1v-2.2c1.4,2.2,3.1,2.7,5.5,2.7C1012.3,763.1,1015.2,759.2,1015.2,753.9 M966.6,745.1v17.5h9.1v-10.5
		c0-2,1-2.8,2.4-2.8c1.3,0,1.7,1.1,1.7,2.5v10.8h9.1v-12c0-3.7-2.4-6.1-6.9-6.1c-3.2,0-5.4,1.2-6.3,2.8v-2.2H966.6z M949.8,752.2
		c0-1.3,0.4-3,2.4-3c1.8,0,2.4,1.3,2.4,3H949.8z M940.3,754c0,3.8,2.3,8.6,10,8.6h11.8v-4.8h-9.5c-1.9,0-2.9-0.6-2.9-2.4H964v-0.9
		c0-8.5-5.6-10-11.8-10C942.7,744.6,940.3,750.2,940.3,754 M927.2,739.9v5.2h-2.7v4.8h2.7v7.7c0,2.8,0.4,3.8,1.5,5h9.5
		c-1-1-2-2.3-2-5.7v-7.1h2.9v-4.8h-2.9v-5.2H927.2z M910.9,749.9h11.4v-4.8h-14.4c-4.7,0-6.2,2.6-6.2,5.3c0,2.9,2,4.6,4.8,5.4
		c1.7,0.5,3.3,0.8,5.1,0.9c2.2,0.2,2.8,0.3,2.8,1c0,0.7-1.2,1.1-3.9,1.1c-3.1,0-6.9-1.3-8.3-2.6v4.9c1.4,0.7,4.2,2,9.6,2
		c7.5,0,11.6-2.4,11.6-6.4c0-3.9-2.7-4.5-4-4.7c-2-0.3-5.1-0.5-7.5-0.8c-1.6-0.2-2-0.5-2-0.9C909.9,749.9,910.3,749.9,910.9,749.9
		 M889.9,743.7h9.1v-6h-9.1V743.7z M889.9,762.6h9.1v-17.5h-9.1V762.6z M871.9,750.4v-6.8h3.3c2.1,0,2.7,1.6,2.7,3.4
		c0,1.7-0.6,3.4-2.7,3.4H871.9z M871.9,762.6v-6.3h5.7c5.5,0,10.2-2.8,10.2-9.6c0-7-4.7-8.9-10.2-8.9h-15.2v24.8H871.9z"/>
	<path style="clip-path:url(#SVGID_00000124853496916644143180000008347673564555614120_);fill:#060708;" d="M971.1,708.7h9.1v-6
		h-9.1V708.7z M971.1,727.6h9.1v-17.5h-9.1V727.6z M958.6,722.9l9.3-8.1v-4.6H948v4.8h8.8l-9.1,8.1v4.6h20.1v-4.8H958.6z
		 M922.7,710.1v17.5h9.1v-10.5c0-2,1-2.8,2.4-2.8c1.3,0,1.7,1.1,1.7,2.5v10.8h9.1v-12c0-3.7-2.4-6.1-6.9-6.1c-3.2,0-5.4,1.2-6.3,2.8
		v-2.2H922.7z M905.9,717.2c0-1.3,0.4-3,2.4-3c1.8,0,2.4,1.3,2.4,3H905.9z M896.5,719c0,3.8,2.3,8.6,10,8.6h11.8v-4.8h-9.5
		c-1.9,0-2.9-0.6-2.9-2.4h14.2v-0.9c0-8.5-5.6-10-11.8-10C898.8,709.6,896.5,715.2,896.5,719 M862.4,727.6h7.7v-17l4.1,17h7.5
		l4.6-17.3v17.3h7.5v-24.8h-11.4l-4.2,15.4l-3.2-15.4h-12.5V727.6z"/>
	<path style="clip-path:url(#SVGID_00000124853496916644143180000008347673564555614120_);fill:#060708;" d="M1032.6,673.7h9.1v-6
		h-9.1V673.7z M1032.6,692.6h9.1v-17.5h-9.1V692.6z M1007,667.8v24.9h9.1v-10.5c0-2,1-2.8,2.4-2.8c1.3,0,1.7,1.1,1.7,2.5v10.9h9.1
		v-12c0-3.7-2.4-6.1-6.9-6.1c-3.2,0-5.4,1.2-6.3,2.8v-9.6H1007z M990,683.8c0-3,0.7-4.5,2.3-4.5c1.8,0,2.6,2.2,2.6,4.3
		c0,2.1-0.4,4.7-2.4,4.8C990.8,688.4,990,687,990,683.8 M1003.7,693.2v-18.1h-9.1v2.1c-1.2-1.7-3.4-2.7-5.8-2.7
		c-5.2,0-8.2,4-8.2,9.4c0,5.3,2.8,9.2,8.5,9.2c2.4,0,4.1-0.6,5.5-2.7v3.4c0,1-0.9,1.1-1.5,1.1h-9.8v4.6h14.8
		C1000.9,699.5,1003.7,698.2,1003.7,693.2 M955.8,675.1v17.5h9.1v-10.5c0-2,1-2.8,2.4-2.8c1.3,0,1.7,1.1,1.7,2.5v10.9h9.1v-12
		c0-3.7-2.4-6.1-6.9-6.1c-3.2,0-5.4,1.2-6.3,2.8v-2.2H955.8z M938.4,683.8c0-2.5,0.4-4.9,2.6-4.9s2.6,2.4,2.6,4.9c0,2.4-0.4,5-2.6,5
		S938.4,686.2,938.4,683.8 M928.9,683.8c0,5.8,5.1,9.4,12.1,9.4s12.1-3.5,12.1-9.4c0-5.6-5.1-9.2-12.1-9.2S928.9,678.2,928.9,683.8
		 M917.3,692.6h9.1v-24.9h-9.1V692.6z M900.4,682.2c0-1.3,0.4-3,2.5-3c1.8,0,2.4,1.3,2.4,3H900.4z M891,684c0,3.8,2.3,8.6,10,8.6
		h11.8v-4.8h-9.5c-1.9,0-2.9-0.6-2.9-2.4h14.2v-0.9c0-8.5-5.6-10-11.8-10C893.3,674.6,891,680.2,891,684 M872,686.8v-13.2h2.7
		c3.6,0,4.5,2.2,4.5,6.5s-0.9,6.7-4.5,6.7H872z M862.4,667.8v24.9h15.2c6.8,0,11.5-4.7,11.5-12.5s-4.7-12.4-11.5-12.4H862.4z"/>
	<path style="clip-path:url(#SVGID_00000124853496916644143180000008347673564555614120_);fill:#060708;" d="M991.7,651.4
		c0-0.6,0.2-1.6,1.4-2.1c1-0.3,2.7-0.7,3.1-0.8v2.9c0,1.6-1.3,2-2.4,2C992.4,653.4,991.7,652.8,991.7,651.4 M996.2,646v0.5
		c-2.6,0.3-8.5,1-10.3,1.5c-2.4,0.7-3.6,2.1-3.6,4.3c0,4,3.7,5.8,7.7,5.8c3,0,5.2-1.1,6.2-2.9c0.1,0.9,0.5,1.8,0.8,2.3h9.9
		c-1.6-2.5-1.6-4.4-1.6-5.7v-5.7c0-4.8-3.6-6.1-6.4-6.1h-15v4.8h10.8C995.5,644.9,996.2,645,996.2,646 M957.7,640.1v17.5h9.1v-10.5
		c0-2,1-2.8,2.4-2.8c1.3,0,1.7,1.1,1.7,2.5v10.9h9.1v-12c0-3.7-2.4-6.1-6.9-6.1c-3.2,0-5.4,1.2-6.3,2.8v-2.2H957.7z M945.3,638.7
		h9.1v-6h-9.1V638.7z M945.3,657.6h9.1v-17.5h-9.1V657.6z M928.5,647.2c0-1.3,0.4-3,2.5-3c1.8,0,2.4,1.3,2.4,3H928.5z M919,649
		c0,3.8,2.3,8.6,10,8.6h11.8v-4.8h-9.5c-1.9,0-2.9-0.6-2.9-2.4h14.2v-0.9c0-8.5-5.6-10-11.8-10C921.4,639.6,919,645.2,919,649
		 M907.4,657.6h9.1v-24.9h-9.1V657.6z M895,657.6h9.1v-24.9H895V657.6z M872.6,645.1c0-5.5,2.5-6.8,4.5-6.8c2,0,4.5,1.4,4.5,6.8
		c0,5.5-2.5,6.9-4.5,6.9C875.1,652,872.6,650.7,872.6,645.1 M892.2,645.1c0-8.2-7.7-12.9-15.1-12.9c-7.5,0-15.1,4.7-15.1,12.9
		c0,8.6,7.7,13.1,15.1,13.1C884.5,658.2,892.2,653.7,892.2,645.1"/>
	<path style="clip-path:url(#SVGID_00000124853496916644143180000008347673564555614120_);fill:#060708;" d="M1063.9,605.1v17.5h9.1
		v-11.7c0-0.7,0.4-1,1.2-1h5.9v-4.8h-3c-1.6,0-3.2,0.7-4.1,2.5v-2.5H1063.9z M1046.6,616.4c0-0.6,0.2-1.6,1.4-2.1
		c1-0.3,2.7-0.7,3.1-0.8v2.9c0,1.6-1.3,2-2.4,2C1047.2,618.4,1046.6,617.8,1046.6,616.4 M1051.1,611v0.5c-2.6,0.3-8.5,1-10.3,1.5
		c-2.4,0.7-3.6,2.1-3.6,4.3c0,4,3.7,5.8,7.7,5.8c3,0,5.2-1.1,6.2-2.9c0.1,0.9,0.5,1.8,0.8,2.3h9.9c-1.6-2.5-1.6-4.4-1.6-5.7v-5.7
		c0-4.8-3.6-6.1-6.4-6.1h-15v4.8h10.8C1050.4,609.9,1051.1,610,1051.1,611 M1025.5,622.6h9.1v-24.9h-9.1V622.6z M1013.1,622.6h9.1
		v-24.9h-9.1V622.6z M1000.7,603.7h9.1v-6h-9.1V603.7z M1000.7,622.6h9.1v-17.5h-9.1V622.6z M983.7,613.6c0-2.1,0.9-4.3,2.6-4.3
		c1.6,0,2.3,1.4,2.3,4.5c0,3.2-0.8,4.6-2.5,4.6C984,618.3,983.7,615.7,983.7,613.6 M998,613.9c0-5.4-2.9-9.4-8.2-9.4
		c-2.4,0-4.5,1-5.8,2.7v-2.1h-9.1v24.4h9.1v-9.1c1.4,2.2,3.1,2.7,5.5,2.7C995.1,623.1,998,619.2,998,613.9 M956.8,605.1v17.5h9.1
		v-11.7c0-0.7,0.4-1,1.2-1h6v-4.8h-3c-1.6,0-3.2,0.7-4.1,2.5v-2.5H956.8z M940,612.2c0-1.3,0.4-3,2.5-3c1.8,0,2.4,1.3,2.4,3H940z
		 M930.6,614c0,3.8,2.3,8.6,10,8.6h11.8v-4.8h-9.5c-1.9,0-2.9-0.6-2.9-2.4h14.2v-0.9c0-8.5-5.6-10-11.8-10
		C932.9,604.6,930.6,610.2,930.6,614 M917.4,599.9v5.2h-2.7v4.8h2.7v7.7c0,2.8,0.4,3.8,1.5,5h9.5c-1-1-2-2.3-2-5.7v-7.1h2.9v-4.8
		h-2.9v-5.2H917.4z M898.7,616.4c0-0.6,0.2-1.6,1.4-2.1c1-0.3,2.7-0.7,3.1-0.8v2.9c0,1.6-1.3,2-2.4,2
		C899.4,618.4,898.7,617.8,898.7,616.4 M903.2,611v0.5c-2.6,0.3-8.5,1-10.3,1.5c-2.4,0.7-3.6,2.1-3.6,4.3c0,4,3.7,5.8,7.7,5.8
		c3,0,5.2-1.1,6.2-2.9c0.1,0.9,0.5,1.8,0.8,2.3h9.9c-1.6-2.5-1.6-4.4-1.6-5.7v-5.7c0-4.8-3.6-6.1-6.4-6.1h-15v4.8h10.8
		C902.5,609.9,903.2,610,903.2,611 M861.9,610.2c0,9.2,7.9,13,15.7,13c3.7,0,7.2-0.9,9.3-2V615c-1.8,0.8-3.9,1.8-6.4,1.8
		c-4,0-7.7-2.4-7.7-6.6c0-4.2,3.7-6.6,7.7-6.6c2.5,0,4.7,0.9,6.4,1.8v-6.2c-2.1-1.1-5.6-2-9.3-2C869.9,597.2,861.9,601,861.9,610.2"
		/>
	<path style="clip-path:url(#SVGID_00000124853496916644143180000008347673564555614120_);fill:#060708;" d="M1560.9,992.8h52.7
		v-42.2h-52.7V992.8z M1460.5,938.6c0-12.4,5.2-25.8,15.8-25.8c9.4,0,13.9,8.6,13.9,26.9c0,19.1-5,27.7-15.1,27.5
		C1462.8,967,1460.5,951.2,1460.5,938.6 M1546.4,940.5c0-32.3-17.6-56.5-49.1-56.5c-14.3,0-27.3,5.9-34.7,16.2v-12.4H1408v146.4
		h54.6v-54.6c8.2,13,18.7,16.4,33,16.4C1529.4,995.9,1546.4,972.4,1546.4,940.5 M1335.2,879.4h54.6v-35.7h-54.6V879.4z
		 M1335.2,992.8h54.6v-105h-54.6V992.8z M1202.2,887.8h44.3l14.5,62.8l14.3-62.8h49.8l-27.1,105h-61.7l-13-53.3l-12.8,53.3h-59.8
		l-28.3-105h54.4l13.6,58.6L1202.2,887.8z M958.2,944.7c0-8.4,2.5-13.6,15.1-13.6h15.8v27.7h-15.5
		C960.7,958.8,958.2,952.9,958.2,944.7 M975.9,877.7h13.2v-34h-27.9c-33,0-57.1,9-57.1,39.7c0,20.6,14.7,29.8,29,32.3v1.1
		c-14.5,2.1-33.8,9-33.8,35.3c0,27.3,25,40.7,51,40.7h96v-61.7h12V904h-12v-13h-57.1v13h-13c-12.8,0-16.2-4.4-16.2-13
		C959.9,881.9,963.3,877.7,975.9,877.7"/>
	<path style="clip-path:url(#SVGID_00000124853496916644143180000008347673564555614120_);fill:#060708;" d="M614.9,940.9l1.5,32.5
		h15.3l1.5-32.5H614.9z M615.3,990.6h17.6v-14.1h-17.6V990.6z M575.7,969.7c0.1-2.7,0.8-6.1,4.9-6.1c3.6,0,4.8,2.7,4.8,6.1H575.7z
		 M556.9,973.3c0,7.6,4.6,17.3,20,17.3h23.7v-9.5h-18.9c-3.7,0-5.7-1.3-5.8-4.8h28.3v-1.8c-0.1-16.9-11.1-19.9-23.6-19.9
		C561.5,954.5,556.9,965.8,556.9,973.3 M547.8,990.6v-25.5h6.7v-9.5h-6.7v-3c0-1.3,0.4-2.2,2.4-2.2h4.3v-9.5h-13.4
		c-5.7,0-11.5,2.6-11.5,12.2v2.5h-5.3v9.5h5.3v25.5H547.8z M501.7,952.8h18.2v-11.9h-18.2V952.8z M501.7,990.6h18.2v-35h-18.2V990.6
		z M453.1,940.9v49.7h44.2v-11.8h-25.1v-37.9H453.1z M391.9,1004.4h10.4c2.9,0,9.2-0.8,11.9-7.6l16.6-41.2h-17.3l-5.1,21.3
		l-4.5-21.3h-19l15.2,35.3c1.3,3-1.4,4.2-2.9,4.2h-5.2V1004.4z M359.4,965.1h22.8v-9.5h-28.8c-9.4,0-12.5,5.2-12.5,10.6
		c0,5.8,4.1,9.2,9.5,10.8c3.4,1,6.6,1.5,10.1,1.9c4.3,0.4,5.6,0.6,5.6,2c0,1.4-2.3,2.2-7.7,2.2c-6.2-0.1-13.7-2.7-16.5-5.1v9.9
		c2.7,1.4,8.4,4,19.2,4c15,0,23.2-4.8,23.2-12.8c0-7.8-5.3-9-8.1-9.5c-4-0.7-10.3-0.9-15-1.5c-3.1-0.4-4-0.9-4-1.8
		C357.3,965.2,358.3,965.1,359.4,965.1 M308.3,978.2c0-1.1,0.5-3.3,2.8-4.1c2-0.7,5.5-1.5,6.2-1.6v5.7c0,3.2-2.5,4.1-4.8,4.1
		C309.6,982.2,308.3,981,308.3,978.2 M317.3,967.5v0.9c-5.2,0.6-17,2-20.6,3.1c-4.8,1.5-7.2,4.1-7.2,8.6c0,7.9,7.5,11.7,15.4,11.7
		c5.9,0,10.4-2.2,12.5-5.8c0.2,1.8,1,3.6,1.7,4.7h19.7c-3.2-4.9-3.3-8.8-3.3-11.5v-11.3c0-9.6-7.2-12.2-12.9-12.2h-30v9.5h21.6
		C315.9,965.1,317.3,965.4,317.3,967.5 M241.2,940.9v49.7H286v-11.8h-25.8v-7.1H281V960h-20.8v-7.3H286v-11.8H241.2z"/>
	<path style="clip-path:url(#SVGID_00000124853496916644143180000008347673564555614120_);fill:#060708;" d="M630,895.1h22.8v-9.5
		h-28.8c-9.4,0-12.5,5.2-12.5,10.6c0,5.8,4.1,9.2,9.5,10.8c3.4,1,6.6,1.5,10.1,1.9c4.3,0.4,5.6,0.6,5.6,2c0,1.4-2.3,2.2-7.7,2.2
		c-6.2-0.1-13.7-2.7-16.5-5.1v9.9c2.7,1.4,8.4,4,19.2,4c15,0,23.2-4.8,23.2-12.8c0-7.8-5.3-9-8.1-9.5c-4-0.7-10.3-0.9-15-1.5
		c-3.1-0.4-4-0.9-4-1.8C628,895.2,628.9,895.1,630,895.1 M588.5,920.6h18.2v-49.7h-18.2V920.6z M554.4,903c0-5,0.8-9.8,5.2-9.8
		c4.4,0,5.2,4.8,5.2,9.8c0,4.8-0.8,10.1-5.2,10.1C555.3,913.1,554.4,907.8,554.4,903 M535.4,903c0,11.7,10.3,18.8,24.3,18.8
		S584,914.7,584,903c0-11.3-10.3-18.5-24.3-18.5S535.4,891.7,535.4,903 M503.1,903c0-5,0.8-9.8,5.2-9.8c4.4,0,5.2,4.8,5.2,9.8
		c0,4.8-0.8,10.1-5.2,10.1C503.9,913.1,503.1,907.8,503.1,903 M484,903c0,11.7,10.3,18.8,24.3,18.8c14,0,24.3-7.1,24.3-18.8
		c0-11.3-10.3-18.5-24.3-18.5C494.3,884.5,484,891.7,484,903 M458.4,875.3v10.4H453v9.5h5.3v15.5c0,5.7,0.8,7.7,3.1,10h19
		c-2-2-3.9-4.6-3.9-11.3v-14.1h5.7v-9.5h-5.7v-10.4H458.4z M404.8,902.9c0-6.1,1.5-9,4.6-9c3.5,0,5.2,4.5,5.2,8.6
		c0,4.2-0.8,9.5-4.8,9.5C406.5,912.2,404.8,909.3,404.8,902.9 M386.1,903.2c0,10.6,5.7,18.5,16.9,18.5c4.8,0,8.3-1.1,11-5.5v4.4
		h18.2v-49.7H414v18.8c-2.5-3.4-6.8-5.4-11.6-5.4C392,884.4,386.1,892.4,386.1,903.2 M353.4,903c0-5,0.8-9.8,5.2-9.8
		s5.2,4.8,5.2,9.8c0,4.8-0.8,10.1-5.2,10.1S353.4,907.8,353.4,903 M334.3,903c0,11.7,10.3,18.8,24.3,18.8s24.3-7.1,24.3-18.8
		c0-11.3-10.3-18.5-24.3-18.5S334.3,891.7,334.3,903 M302,903c0-5,0.8-9.8,5.2-9.8s5.2,4.8,5.2,9.8c0,4.8-0.8,10.1-5.2,10.1
		S302,907.8,302,903 M283,903c0,11.7,10.3,18.8,24.3,18.8s24.3-7.1,24.3-18.8c0-11.3-10.3-18.5-24.3-18.5S283,891.7,283,903
		 M257.9,889h20c-2.7-14.8-14.4-19.2-27.6-19.2c-18.6,0-29.5,10.1-29.5,26.5c0,17.1,9.8,25.5,24.8,25.5c7.8,0,12.5-2.3,15.4-6.2
		l0.3,5.1H278v-28.1h-28.7v11.8h7.9c-1.1,4.6-4.5,5.2-7.1,5.2c-4.5,0-8.1-3.6-8.1-13.8c0-10.2,4.1-13.5,8.5-13.5
		C252.8,882.1,256.5,883.2,257.9,889"/>
	<path style="clip-path:url(#SVGID_00000124853496916644143180000008347673564555614120_);fill:#060708;" d="M1563,429l3.1,65.1
		h30.7l3.1-65.1H1563z M1563.8,528.4h35.1v-28.1h-35.1V528.4z M1512.8,429l3.1,65.1h30.7l3.1-65.1H1512.8z M1513.6,528.4h35.1v-28.1
		h-35.1V528.4z M1462.7,429l3.1,65.1h30.7l3.1-65.1H1462.7z M1463.5,528.4h35.1v-28.1h-35.1V528.4z M1376.8,458.4v70h36.4v-46.9
		c0-2.7,1.7-4.1,4.6-4.1h23.8v-19h-11.9c-6.3,0-12.9,2.8-16.5,10.1v-10.1H1376.8z M1310.7,486.5c0.1-5.3,1.7-12.2,9.8-12.2
		c7.3,0,9.5,5.3,9.5,12.2H1310.7z M1273.1,493.8c0,15.1,9.2,34.6,39.9,34.6h47.3v-19h-37.8c-7.4,0-11.5-2.5-11.6-9.7h56.7v-3.6
		c-0.1-33.9-22.3-39.9-47.2-39.9C1282.3,456.2,1273.1,478.8,1273.1,493.8 M1221.6,437.7v20.7H1211v19h10.6v30.9
		c0,11.3,1.7,15.4,6.2,20h38.1c-3.9-4.1-7.8-9.2-7.8-22.7v-28.3h11.5v-19H1258v-20.7H1221.6z M1157.6,477.4h45.6v-19h-57.5
		c-18.8,0-24.9,10.4-24.9,21.1c0,11.6,8.1,18.3,19,21.6c6.9,2,13.2,3.1,20.3,3.8c8.7,0.8,11.2,1.1,11.2,3.9c0,2.8-4.6,4.5-15.4,4.3
		c-12.3-0.1-27.4-5.3-33-10.2v19.7c5.5,2.8,16.8,8,38.5,8c30,0,46.3-9.5,46.3-25.6c0-15.7-10.6-17.9-16.1-18.9
		c-8-1.4-20.6-1.8-30.1-3.1c-6.3-0.8-8-1.8-8-3.5C1153.6,477.6,1155.4,477.4,1157.6,477.4 M1055.9,493.1c0-9.9,1.7-19.6,10.5-19.6
		c8.8,0,10.5,9.7,10.5,19.6c0,9.7-1.7,20.2-10.5,20.2C1057.6,513.3,1055.9,502.8,1055.9,493.1 M1017.8,493.1
		c0,23.4,20.6,37.5,48.6,37.5s48.6-14.1,48.6-37.5c0-22.5-20.6-37-48.6-37S1017.8,470.6,1017.8,493.1 M954.4,492.3
		c0-8.3,3.5-17.2,10.5-17.2c6.3,0,9.2,5.7,9.2,17.9c0,12.7-3.4,18.5-10.1,18.3C955.9,511.2,954.4,500.7,954.4,492.3 M1011.6,493.5
		c0-21.6-11.8-37.7-32.8-37.7c-9.5,0-18.2,3.9-23.1,10.8v-8.3h-36.4V556h36.4v-36.4c5.5,8.7,12.5,10.9,22,10.9
		C1000.3,530.5,1011.6,514.8,1011.6,493.5"/>
	<path style="clip-path:url(#SVGID_00000124853496916644143180000008347673564555614120_);fill:#060708;" d="M1508.6,356.5
		c0.1-5.3,1.7-12.2,9.8-12.2c7.3,0,9.5,5.3,9.5,12.2H1508.6z M1470.9,363.8c0,15.1,9.2,34.6,39.9,34.6h47.3v-19h-37.8
		c-7.4,0-11.5-2.5-11.6-9.7h56.7v-3.6c-0.1-33.9-22.3-39.9-47.2-39.9C1480.2,326.2,1470.9,348.8,1470.9,363.8 M1373.4,299v99.4h36.4
		v-42.1c0-7.8,4.1-11.2,9.5-11.2c5.2,0,6.9,4.5,6.9,9.9v43.4h36.4v-47.9c0-15-9.5-24.4-27.4-24.4c-12.9,0-21.4,4.8-25.3,11.2V299
		H1373.4z M1316.8,307.7v20.7h-10.6v19h10.6v30.9c0,11.3,1.7,15.4,6.2,20h38.1c-3.9-4.1-7.8-9.2-7.8-22.7v-28.3h11.5v-19h-11.5
		v-20.7H1316.8z M1223.9,398.4h36.4V299h-36.4V398.4z M1155.8,363.1c0-9.9,1.7-19.6,10.5-19.6c8.8,0,10.5,9.7,10.5,19.6
		c0,9.7-1.7,20.2-10.5,20.2C1157.5,383.3,1155.8,372.8,1155.8,363.1 M1117.7,363.1c0,23.4,20.6,37.5,48.6,37.5s48.6-14.1,48.6-37.5
		c0-22.5-20.6-37-48.6-37S1117.7,340.6,1117.7,363.1 M1053.2,363.1c0-9.9,1.7-19.6,10.5-19.6c8.8,0,10.5,9.7,10.5,19.6
		c0,9.7-1.7,20.2-10.5,20.2C1054.9,383.3,1053.2,372.8,1053.2,363.1 M1015.1,363.1c0,23.4,20.6,37.5,48.6,37.5s48.6-14.1,48.6-37.5
		c0-22.5-20.6-37-48.6-37S1015.1,340.6,1015.1,363.1 M963.8,307.7v20.7h-10.6v19h10.6v30.9c0,11.3,1.7,15.4,6.2,20h38.1
		c-3.9-4.1-7.8-9.2-7.8-22.7v-28.3h11.5v-19h-11.5v-20.7H963.8z"/>
	<path style="clip-path:url(#SVGID_00000124853496916644143180000008347673564555614120_);fill:#060708;" d="M1574.1,198.4v70h36.4
		v-46.9c0-2.7,1.7-4.1,4.6-4.1h23.8v-19H1627c-6.3,0-12.9,2.8-16.5,10.1v-10.1H1574.1z M1508,226.5c0.1-5.3,1.7-12.2,9.8-12.2
		c7.3,0,9.5,5.3,9.5,12.2H1508z M1470.4,233.8c0,15.1,9.2,34.6,39.9,34.6h47.3v-19h-37.8c-7.4,0-11.5-2.5-11.6-9.7h56.7v-3.6
		c-0.1-33.9-22.3-39.9-47.2-39.9C1479.6,196.2,1470.4,218.8,1470.4,233.8 M1426.8,249.4l37.1-32.5v-18.5h-79.4v19h35.3l-36.3,32.5
		v18.5h80.4v-19H1426.8z M1318.5,233.1c0-9.9,1.7-19.6,10.5-19.6c8.8,0,10.5,9.7,10.5,19.6c0,9.7-1.7,20.2-10.5,20.2
		C1320.2,253.3,1318.5,242.8,1318.5,233.1 M1280.5,233.1c0,23.4,20.6,37.5,48.6,37.5s48.6-14.1,48.6-37.5c0-22.5-20.6-37-48.6-37
		S1280.5,210.6,1280.5,233.1 M1216.7,233c0-12.2,2.9-17.9,9.2-17.9c7,0,10.5,9,10.5,17.2c0,8.4-1.5,18.9-9.7,19
		C1220.1,251.5,1216.7,245.7,1216.7,233 M1179.2,233.5c0,21.3,11.3,37,33.9,37c9.5,0,16.5-2.2,22-10.9v8.8h36.4V169h-36.4v37.7
		c-4.9-6.9-13.6-10.8-23.1-10.8C1191,195.9,1179.2,212,1179.2,233.5 M1133.1,268.4h36.4V169h-36.4V268.4z M1084.5,268.4h36.4V169
		h-36.4V268.4z M1035.8,268.4v-8.5c-3.9,6-9.8,10.8-23.8,10.8c-17.9,0-27-9.4-27-24.4v-47.9h36.4v41.7c0,5.5,0.1,10.1,6.3,10.1
		c6.9,0,8.1-4.6,8.1-11.3v-40.5h36.4v70H1035.8z M918.6,232.3c0-8.3,3.5-17.2,10.5-17.2c6.3,0,9.2,5.7,9.2,17.9
		c0,12.7-3.4,18.5-10.1,18.3C920.1,251.2,918.6,240.7,918.6,232.3 M975.9,233.5c0-21.6-11.8-37.7-32.8-37.7
		c-9.5,0-18.2,3.9-23.1,10.8V169h-36.4v99.4H920v-8.8c5.5,8.7,12.5,10.9,22,10.9C964.5,270.5,975.9,254.8,975.9,233.5"/>
	<path style="clip-path:url(#SVGID_00000124853496916644143180000008347673564555614120_);fill:#060708;" d="M1557.3,96.5
		c0.1-5.3,1.7-12.2,9.8-12.2c7.3,0,9.5,5.3,9.5,12.2H1557.3z M1519.6,103.8c0,15.1,9.2,34.6,39.9,34.6h47.3v-19H1569
		c-7.4,0-11.5-2.5-11.6-9.7h56.7v-3.6c-0.1-33.9-22.3-39.9-47.2-39.9C1528.9,66.2,1519.6,88.8,1519.6,103.8 M1422.1,39v99.4h36.4
		V96.3c0-7.8,4.1-11.2,9.5-11.2c5.2,0,6.9,4.5,6.9,9.9v43.4h36.4V90.5c0-15-9.5-24.4-27.4-24.4c-12.9,0-21.4,4.8-25.3,11.2V39
		H1422.1z M1365.5,47.7v20.7h-10.6v19h10.6v30.9c0,11.3,1.7,15.4,6.2,20h38.1c-3.9-4.1-7.8-9.2-7.8-22.7V87.4h11.5v-19h-11.5V47.7
		H1365.5z M1212.4,96.8v41.4H1176v-70h36.4v9.1c4.1-6.2,10.6-11.2,23.1-11.2c13.7,0,20.2,5.7,23.2,10.5c3.6-5,10.4-10.5,23.4-10.5
		c14,0,27.7,5.2,27.7,26.5v45.8h-36.4V92.5c0-3.4-1.4-6.2-6.2-6c-3.9,0.1-6.2,3.1-6.2,10.4v41.6h-36.4V92.5c0-3.4-1.4-6.2-6.2-6
		C1214.6,86.6,1212.4,89.5,1212.4,96.8 M1107.8,103.1c0-9.9,1.7-19.6,10.5-19.6s10.5,9.7,10.5,19.6c0,9.7-1.7,20.2-10.5,20.2
		S1107.8,112.8,1107.8,103.1 M1069.7,103.1c0,23.4,20.6,37.5,48.6,37.5s48.6-14.1,48.6-37.5c0-22.5-20.6-37-48.6-37
		S1069.7,80.6,1069.7,103.1 M1001.3,68.4v70h36.4V91.5c0-2.7,1.7-4.1,4.6-4.1h23.8v-19h-11.9c-6.3,0-12.9,2.8-16.5,10.1V68.4H1001.3
		z M907.7,39v99.4h38.1v-37.2h41.6V77.6h-41.6V62.5h51.5V39H907.7z"/>
</g>
</svg>
